<?xml version="1.0" encoding="UTF-8" standalone="no"?>
<svg width="2705px" height="1024px" viewBox="0 0 2705 1024" version="1.1" xmlns="http://www.w3.org/2000/svg" xmlns:xlink="http://www.w3.org/1999/xlink">
    <!-- Generator: Sketch 47 (45396) - http://www.bohemiancoding.com/sketch -->
    <title>logo-arity</title>
    <desc>Created with Sketch.</desc>
    <defs></defs>
    <g id="Page-1" stroke="none" stroke-width="1" fill="none" fill-rule="evenodd">
        <g id="logo-arity" fill-rule="nonzero" fill="#FFFFFF">
            <path d="M77.903,306.152 C130.571,250.207 196.414,222.764 274.306,222.764 C357.728,222.764 422.445,256.761 438.897,305.059 L438.897,232.628 L602.396,232.628 L602.396,591.438 C602.396,635.333 613.387,652.912 643.015,652.912 C650.695,652.912 660.56,651.786 670.424,650.727 L670.424,786.782 C652.914,792.243 628.747,795.554 596.935,795.554 C560.72,795.554 529.965,788.966 506.96,775.791 C481.701,759.339 465.249,739.576 457.569,716.536 C421.354,770.33 361.006,796.647 274.307,796.647 C196.415,796.647 130.572,769.204 77.904,714.352 C26.329,658.407 0.012,590.346 0.012,509.142 C0.012,429.065 26.329,361.037 77.904,306.151 L77.903,306.152 Z M405.992,607.925 C434.527,580.482 448.795,547.577 448.795,509.143 C448.795,470.743 434.527,437.838 405.992,411.488 C378.549,384.079 344.552,370.903 303.933,370.903 C264.441,370.903 231.536,384.078 204.093,411.488 C176.65,437.839 163.474,470.743 163.474,509.143 C163.474,547.577 176.649,580.482 204.093,607.925 C231.536,634.242 264.441,647.417 303.933,647.417 C344.552,647.417 378.548,634.242 405.992,607.925 L405.992,607.925 Z" id="Shape"></path>
            <path d="M740.041,785.678 L740.041,232.65 L903.54,232.65 L903.54,308.358 C928.765,252.379 988.02,220.567 1063.728,220.567 C1074.719,220.567 1088.987,221.693 1106.531,223.844 L1106.531,377.478 C1090.079,374.201 1071.408,371.983 1051.679,371.983 C958.393,371.983 903.54,424.651 903.54,515.753 L903.54,785.679 L740.041,785.679 L740.041,785.678 Z" id="Shape"></path>
            <path d="M1267.231,0 C1318.806,0 1360.483,40.585 1360.483,93.286 C1360.483,144.861 1318.806,185.446 1267.231,185.446 C1215.656,185.446 1173.979,144.861 1173.979,93.286 C1173.979,40.584 1215.656,0 1267.231,0 Z" id="Shape"></path>
            <path d="M1186.041,232.639 L1349.54,232.639 L1349.54,591.449 C1349.54,632.034 1359.405,649.612 1386.848,649.612 C1396.713,649.612 1403.3,648.52 1406.577,647.393 L1406.577,786.759 C1392.343,792.254 1367.085,795.565 1330.869,795.565 C1234.306,795.565 1186.041,743.99 1186.041,639.712 L1186.041,232.638 L1186.041,232.639 Z" id="Shape"></path>
            <path d="M1778.005,232.639 L1778.005,380.778 L1655.091,380.778 L1655.091,578.273 C1655.091,630.941 1675.946,651.796 1725.337,651.796 C1734.109,651.796 1748.377,650.704 1767.014,647.393 L1767.014,792.255 C1745.1,797.75 1718.749,799.935 1686.937,799.935 C1559.654,799.935 1495.995,734.092 1495.995,602.405 L1495.995,380.777 L1423.598,380.777 L1423.598,232.638 L1778.004,232.638 L1778.005,232.639 Z" id="Shape"></path>
            <path d="M1560.986,0 C1612.561,0 1654.238,40.585 1654.238,93.286 C1654.238,144.861 1612.561,185.446 1560.986,185.446 C1509.411,185.446 1467.734,144.861 1467.734,93.286 C1467.734,40.584 1509.411,0 1560.986,0 Z" id="Shape"></path>
            <path d="M1927.584,874.701 C1945.197,880.162 1967.076,883.473 1994.485,883.473 C2015.409,883.473 2030.769,879.07 2041.76,871.39 C2052.649,863.71 2058.11,853.129 2064.732,836.301 L2073.573,812.169 L1837.609,232.79 L2004.419,232.79 L2154.776,616.824 L2290.763,232.79 L2457.538,232.79 L2211.778,873.575 C2193.107,920.747 2172.286,954.778 2148.153,975.6 C2111.972,1007.446 2062.581,1023.899 2000.048,1023.899 C1974.755,1023.899 1950.623,1021.714 1927.583,1016.219 L1927.583,874.702 L1927.584,874.701 Z" id="Shape"></path>
            <path d="M2676.702,235.554 L2704.35,235.554 L2704.35,327.407 L2686.43,327.407 L2686.43,250.402 L2669.227,327.407 L2650.283,327.407 L2633.08,250.402 L2633.08,327.407 L2615.16,327.407 L2615.16,235.554 L2643.115,235.554 L2660.011,307.951 L2676.702,235.554 L2676.702,235.554 Z M2544.094,299.247 C2544.708,303.343 2545.937,306.415 2547.576,308.565 C2550.75,312.456 2555.973,314.402 2563.55,314.402 C2568.056,314.402 2571.947,313.89 2574.814,312.866 C2580.139,310.92 2582.699,307.439 2582.699,302.114 C2582.699,299.042 2581.368,296.687 2578.91,294.946 C2576.145,293.41 2572.049,291.976 2566.315,290.543 L2556.587,288.597 C2546.859,286.344 2540.203,283.989 2536.619,281.327 C2530.27,277.129 2527.198,270.575 2527.198,261.666 C2527.198,253.372 2530.168,246.306 2536.209,240.981 C2542.353,235.451 2551.057,232.789 2562.731,232.789 C2572.459,232.789 2580.753,235.247 2587.614,240.469 C2594.372,245.589 2597.956,253.064 2598.264,262.997 L2579.934,262.997 C2579.524,257.365 2577.169,253.371 2572.664,251.119 C2569.694,249.685 2565.906,248.866 2561.502,248.866 C2556.484,248.866 2552.491,249.89 2549.624,251.836 C2546.552,253.782 2545.118,256.546 2545.118,260.13 C2545.118,263.304 2546.552,265.864 2549.419,267.503 C2551.262,268.527 2555.256,269.858 2561.502,271.394 L2577.272,275.285 C2584.338,276.923 2589.56,279.176 2593.246,281.839 C2598.673,286.14 2601.438,292.386 2601.438,300.578 C2601.438,309.18 2598.161,316.143 2591.71,321.672 C2585.156,327.304 2576.145,330.069 2564.267,330.069 C2552.286,330.069 2542.865,327.304 2536.107,321.877 C2529.349,316.347 2525.867,308.872 2525.867,299.247 L2544.094,299.247 L2544.094,299.247 Z" id="Shape"></path>
        </g>
    </g>
</svg>