<!-- Generated by IcoMoon.io -->
<svg version="1.1" xmlns="http://www.w3.org/2000/svg" width="2714" height="1024" viewBox="0 0 2714 1024">
<title></title>
<g id="icomoon-ignore">
</g>
<path fill="#000" d="M77.903 306.152c52.668-55.945 118.511-83.388 196.403-83.388 83.422 0 148.139 33.997 164.591 82.295v-72.431h163.499v358.81c0 43.895 10.991 61.474 40.619 61.474 7.68 0 17.545-1.126 27.409-2.185v136.055c-17.51 5.461-41.677 8.772-73.489 8.772-36.215 0-66.97-6.588-89.975-19.763-25.259-16.452-41.711-36.215-49.391-59.255-36.215 53.794-96.563 80.111-183.262 80.111-77.892 0-143.735-27.443-196.403-82.295-51.575-55.945-77.892-124.006-77.892-205.21 0-80.077 26.317-148.105 77.892-202.991zM405.992 607.925c28.535-27.443 42.803-60.348 42.803-98.782 0-38.4-14.268-71.305-42.803-97.655-27.443-27.409-61.44-40.585-102.059-40.585-39.492 0-72.397 13.175-99.84 40.585-27.443 26.351-40.619 59.255-40.619 97.655 0 38.434 13.175 71.339 40.619 98.782 27.443 26.317 60.348 39.492 99.84 39.492 40.619 0 74.615-13.175 102.059-39.492z"></path>
<path fill="#000" d="M740.041 785.678v-553.028h163.499v75.708c25.225-55.979 84.48-87.791 160.188-87.791 10.991 0 25.259 1.126 42.803 3.277v153.634c-16.452-3.277-35.123-5.495-54.852-5.495-93.286 0-148.139 52.668-148.139 143.77v269.926h-163.499z"></path>
<path fill="#000" d="M1267.231 0c51.575 0 93.252 40.585 93.252 93.286 0 51.575-41.677 92.16-93.252 92.16s-93.252-40.585-93.252-92.16c0-52.702 41.677-93.286 93.252-93.286z"></path>
<path fill="#000" d="M1186.041 232.639h163.499v358.81c0 40.585 9.865 58.163 37.308 58.163 9.865 0 16.452-1.092 19.729-2.219v139.366c-14.234 5.495-39.492 8.806-75.708 8.806-96.563 0-144.828-51.575-144.828-155.853v-407.074z"></path>
<path fill="#000" d="M1778.005 232.639v148.139h-122.914v197.495c0 52.668 20.855 73.523 70.246 73.523 8.772 0 23.040-1.092 41.677-4.403v144.862c-21.914 5.495-48.265 7.68-80.077 7.68-127.283 0-190.942-65.843-190.942-197.53v-221.628h-72.397v-148.139h354.406z"></path>
<path fill="#000" d="M1560.986 0c51.575 0 93.252 40.585 93.252 93.286 0 51.575-41.677 92.16-93.252 92.16s-93.252-40.585-93.252-92.16c0-52.702 41.677-93.286 93.252-93.286z"></path>
<path fill="#000" d="M1927.584 874.701c17.613 5.461 39.492 8.772 66.901 8.772 20.924 0 36.284-4.403 47.275-12.083 10.889-7.68 16.35-18.261 22.972-35.089l8.841-24.132-235.964-579.379h166.81l150.357 384.034 135.987-384.034h166.775l-245.76 640.785c-18.671 47.172-39.492 81.203-63.625 102.025-36.181 31.846-85.572 48.299-148.105 48.299-25.293 0-49.425-2.185-72.465-7.68v-141.517z"></path>
<path fill="#000" d="M2676.702 235.554h27.648v91.853h-17.92v-77.005l-17.203 77.005h-18.944l-17.203-77.005v77.005h-17.92v-91.853h27.955l16.896 72.397 16.691-72.397zM2544.094 299.247c0.614 4.096 1.843 7.168 3.482 9.318 3.174 3.891 8.397 5.837 15.974 5.837 4.506 0 8.397-0.512 11.264-1.536 5.325-1.946 7.885-5.427 7.885-10.752 0-3.072-1.331-5.427-3.789-7.168-2.765-1.536-6.861-2.97-12.595-4.403l-9.728-1.946c-9.728-2.253-16.384-4.608-19.968-7.27-6.349-4.198-9.421-10.752-9.421-19.661 0-8.294 2.97-15.36 9.011-20.685 6.144-5.53 14.848-8.192 26.522-8.192 9.728 0 18.022 2.458 24.883 7.68 6.758 5.12 10.342 12.595 10.65 22.528h-18.33c-0.41-5.632-2.765-9.626-7.27-11.878-2.97-1.434-6.758-2.253-11.162-2.253-5.018 0-9.011 1.024-11.878 2.97-3.072 1.946-4.506 4.71-4.506 8.294 0 3.174 1.434 5.734 4.301 7.373 1.843 1.024 5.837 2.355 12.083 3.891l15.77 3.891c7.066 1.638 12.288 3.891 15.974 6.554 5.427 4.301 8.192 10.547 8.192 18.739 0 8.602-3.277 15.565-9.728 21.094-6.554 5.632-15.565 8.397-27.443 8.397-11.981 0-21.402-2.765-28.16-8.192-6.758-5.53-10.24-13.005-10.24-22.63h18.227z"></path>
</svg>
