<svg xmlns="http://www.w3.org/2000/svg" viewBox="0 0 2000 811.37325"><defs><style>.a{fill:#011c2c;}.b{fill:#63727e;}</style></defs><title>Arity_Logo_Small_R_Allstate_Navy_RGB</title><path class="a" d="M461.091,452.69727V178.05909H335.94127V233.49c-12.59423-36.95605-62.14514-62.9908-125.98376-62.9908-59.62725,0-110.01693,20.99906-150.33026,63.82955C20.14471,276.32685,0,328.39476,0,389.70647c0,62.15205,20.14471,114.22634,59.62725,157.05684,40.31333,41.99812,90.703,62.98921,150.33026,62.98921,66.35651,0,112.55714-20.15234,140.26987-61.30374q8.82138,26.45174,37.797,45.34675c17.62841,10.07617,41.1521,15.12621,68.86483,15.12621,24.35607,0,42.84558-2.5322,56.2706-6.72117V498.05837c-7.55207.8244-15.1185,1.67112-20.99145,1.67112C469.48985,499.72949,461.091,486.29035,461.091,452.69727ZM310.74643,465.29767q-31.48956,30.24047-78.104,30.2301c-30.237,0-55.43183-10.06979-76.43125-30.2301-20.99942-20.99109-31.07576-46.19347-31.07576-75.5912s10.07634-54.59214,31.07576-74.74447c20.99942-20.99906,46.19426-31.0832,76.43125-31.0832,31.06938,0,57.111,10.08414,78.104,31.0832,21.83818,20.15234,32.76126,45.34675,32.76126,74.74447S332.58461,444.30658,310.74643,465.29767ZM691.57278,236.01579V178.06068h-125.137V601.35544h125.137V394.74216c0-69.71038,41.99884-110.023,113.38793-110.023a215.67439,215.67439,0,0,1,42.00043,4.20332V171.33952a277.50827,277.50827,0,0,0-32.76924-2.51625C756.25016,168.82326,710.89467,193.17892,691.57278,236.01579Zm278.38063-94.0772c39.48095,0,71.38909-31.06885,71.38909-70.54275C1041.34251,31.07682,1009.43436,0,969.95341,0c-39.4666,0-71.38272,31.07682-71.38272,71.39585C898.5707,110.86975,930.48682,141.9386,969.95341,141.9386Zm62.99188,310.76186V178.06228H907.80987V489.65013c0,79.79292,36.94233,119.27479,110.86366,119.27479,27.71273,0,47.03462-2.5322,57.94334-6.72754V495.523c-2.51789.84672-7.55207,1.69345-15.11212,1.69345C1040.50534,497.21643,1032.94529,483.76931,1032.94529,452.70046Zm56.6836-161.25856h55.42386V461.09116q0,151.17841,146.14282,151.19037c24.35607,0,44.51673-1.68547,61.30638-5.88879V495.523c-14.27176,2.5322-25.19484,3.36457-31.90017,3.36457-37.81139,0-53.76865-15.95858-53.76865-56.27123V291.4419h94.074V178.06228H1089.62889Zm116.62818-149.5033c39.48254,0,71.38272-31.06885,71.38272-70.54275,0-40.319-31.90017-71.39585-71.38272-71.39585-39.47457,0-71.38271,31.07682-71.38271,71.39585C1134.87436,110.86975,1166.7825,141.9386,1206.25707,141.9386Zm547.11228,36.12368-104.077,293.93264L1534.20616,178.06228H1406.53849l180.59437,443.4471-6.76912,18.46208c-5.06289,12.88263-9.2312,20.99268-17.5742,26.8735-8.41,5.88082-20.17182,9.231-36.17373,9.231-20.993,0-37.746-2.529-51.21728-6.70044V777.68919c17.64277,4.20651,36.10516,5.88082,55.45735,5.88082,47.867,0,85.68158-12.58126,113.37677-36.95924,18.46239-15.93307,34.39574-41.98537,48.68663-78.08991L1881.037,178.06228Z"/><path class="b" d="M56.08984,777.92528V711.3355H43.7667V695.109H56.08984v-7.04168q0-13.93028,7.99856-21.6353,7.99856-7.69227,22.38832-7.67951a53.087,53.087,0,0,1,11.25157,1.50529l-.22962,17.01739a28.20163,28.20163,0,0,0-6.73563-.68886q-12.47623,0-12.47623,11.81267v6.71H94.74319V711.3355H78.28682v66.58978Z"/><path class="b" d="M98.86366,735.75175a49.1142,49.1142,0,0,1,4.74556-21.967,34.73978,34.73978,0,0,1,13.66262-14.9253,39.86108,39.86108,0,0,1,20.70442-5.28126q16.76254,0,27.36351,10.25636t11.82563,27.86055l.15308,5.664q0,19.05845-10.63924,30.565-10.63924,11.51927-28.5499,11.532-17.91066,0-28.58817-11.481T98.86366,736.74677Zm22.12043,1.55631q0,11.82543,4.43939,18.06343t12.70585,6.25076a14.69691,14.69691,0,0,0,12.55277-6.17422q4.51594-6.16147,4.51594-19.74731c0-7.705-1.50531-13.70066-4.51594-17.93587a14.68688,14.68688,0,0,0-12.70585-6.35282,14.39877,14.39877,0,0,0-12.55277,6.3273Q120.98409,724.0539,120.98409,737.30807Z"/><path class="b" d="M236.62521,769.50588q-8.18992,9.9502-22.65622,9.9502-13.31818,0-20.32171-7.654t-7.15661-22.42621V695.109H208.6111V748.6615q0,12.97353,11.78736,12.96077,11.25157,0,15.46134-7.83259V695.109h22.197v82.81625H237.23754Z"/><path class="b" d="M294.31182,695.109l.68887,9.5675q8.87879-11.0983,23.80434-11.0983,13.1651,0,19.59457,7.73054t6.58255,23.11507v53.50144H322.86172V724.83205c0-4.69445-1.02055-8.11324-3.06165-10.23084-2.0411-2.14312-5.43443-3.18917-10.18-3.18917A15.21774,15.21774,0,0,0,295.613,719.3722v58.55308H273.49259V695.109Z"/><path class="b" d="M357.52216,735.90483q0-19.36461,8.68744-30.84561t23.76607-11.481a25.36541,25.36541,0,0,1,19.97727,9.03172V660.35988h22.197v117.5654H412.17263l-1.07158-8.8021a26.031,26.031,0,0,1-21.27848,10.3329,28.12388,28.12388,0,0,1-23.4599-11.532Q357.52216,756.40479,357.52216,735.90483Zm22.12043,1.55631q0,11.71062,4.05669,17.93587a13.24141,13.24141,0,0,0,11.78736,6.22525q10.25653,0,14.4663-8.7V720.08657q-4.13323-8.68729-14.31322-8.67453Q379.64259,711.412,379.64259,737.46115Z"/><path class="b" d="M482.99166,779.45608q-18.21682,0-29.65975-11.17484t-11.44292-29.774v-2.14312a50.08342,50.08342,0,0,1,4.8221-22.32416A35.38878,35.38878,0,0,1,460.37372,698.885a38.34011,38.34011,0,0,1,20.16863-5.30677q16.99216,0,26.75118,10.7156t9.759,30.38637v9.03172H464.31559a20.54865,20.54865,0,0,0,6.46774,13.0118,19.55168,19.55168,0,0,0,13.66262,4.89856q12.78239,0,19.97727-9.26134l10.86886,12.16986a33.17931,33.17931,0,0,1-13.47127,10.97073A44.20336,44.20336,0,0,1,482.99166,779.45608Zm-2.52586-68.044a13.785,13.785,0,0,0-10.67751,4.46483q-4.095,4.43932-5.24308,12.75666h30.76959V726.8476c-.10206-4.89856-1.42877-8.72556-3.98015-11.40446C488.78329,712.73874,485.16033,711.412,480.4658,711.412Z"/><path class="b" d="M527.2511,735.90483q0-19.36461,8.68744-30.84561t23.76607-11.481a25.36541,25.36541,0,0,1,19.97727,9.03172V660.35988h22.197v117.5654H581.90157l-1.07158-8.8021a26.031,26.031,0,0,1-21.27848,10.3329,28.12388,28.12388,0,0,1-23.4599-11.532Q527.2511,756.40479,527.2511,735.90483Zm22.12043,1.55631q0,11.71062,4.05669,17.93587a13.24141,13.24141,0,0,0,11.78736,6.22525q10.25653,0,14.4663-8.7V720.08657q-4.13323-8.68729-14.31322-8.67453Q549.37153,711.412,549.37153,737.46115Z"/><path class="b" d="M727.99336,737.28255q0,19.90039-8.49608,31.0242-8.49608,11.13657-23.7278,11.14932-13.47127,0-21.5081-10.3329l-.995,8.8021H653.36561V660.35988H675.486v42.17353q7.65413-8.95518,20.13036-8.95518,15.15517,0,23.76607,11.12381,8.61089,11.13657,8.61089,31.35588Zm-22.12043-1.68388c0-8.39388-1.32672-14.5426-3.98015-18.39511s-6.60806-5.79152-11.8639-5.79152q-10.5627,0-14.54284,8.67453V752.8712c2.70446,5.817,7.6031,8.75107,14.69593,8.75107q10.71578,0,14.0836-10.61354Q705.87293,745.95708,705.87293,735.59868Z"/><path class="b" d="M767.83309,746.62043l15.30826-51.5114h23.7278l-33.29546,95.675-1.837,4.36278q-7.4245,16.22647-24.49321,16.22647a34.80523,34.80523,0,0,1-9.79728-1.45426V793.15674l3.36782.07654q6.27638,0,9.37631-1.9135a12.57073,12.57073,0,0,0,4.86037-6.35282l2.6024-6.81206L728.644,695.109H752.4483Z"/><path class="b" d="M907.52295,754.96329H867.26224l-7.65413,22.962H835.19144l41.48537-111.4422h21.27848l41.715,111.4422H915.25362Zm-34.06087-18.59921h27.861l-14.00705-41.71429Z"/><path class="b" d="M968.05434,777.92528h-22.197V660.35988h22.197Z"/><path class="b" d="M1004.55849,777.92528h-22.197V660.35988h22.197Z"/><path class="b" d="M1063.7249,755.03983c0-2.70441-1.35223-4.84753-4.03117-6.40384s-6.96526-2.934-12.88445-4.15867q-29.54493-6.19974-29.54493-25.10511,0-11.02176,9.13393-18.42062,9.14668-7.38611,23.93191-7.37335,15.7675,0,25.2076,7.42438a23.40961,23.40961,0,0,1,9.46561,19.28807h-22.12043a10.73254,10.73254,0,0,0-3.06165-7.8581c-2.0411-2.06658-5.23032-3.08711-9.56766-3.08711q-5.58751,0-8.64917,2.52582a7.97329,7.97329,0,0,0-3.06165,6.42936,6.78307,6.78307,0,0,0,3.46987,5.91909q3.48263,2.25793,11.76184,3.90354a95.82759,95.82759,0,0,1,13.93051,3.72495q17.528,6.42936,17.528,22.27313,0,11.32792-9.72074,18.31857-9.72074,7.00341-25.10554,7.01616a43.859,43.859,0,0,1-18.49748-3.72495,30.97372,30.97372,0,0,1-12.65482-10.17982,23.61559,23.61559,0,0,1-4.59248-13.95579h20.97231a11.54781,11.54781,0,0,0,4.36285,9.03172q4.05669,3.13814,10.86886,3.13814c4.23528,0,7.4245-.81643,9.59317-2.42377A7.49191,7.49191,0,0,0,1063.7249,755.03983Z"/><path class="b" d="M1125.162,674.7494V695.109h14.16014V711.3355H1125.162v41.33159q0,4.5924,1.76045,6.58244t6.73563,1.99a35.27653,35.27653,0,0,0,6.506-.53578V777.466a45.53865,45.53865,0,0,1-13.39472,1.99q-23.26855,0-23.7278-23.49777V711.3355h-12.09352V695.109h12.09352V674.7494Z"/><path class="b" d="M1200.72685,777.92528a24.56374,24.56374,0,0,1-2.2197-7.42438q-8.03684,8.95518-20.89577,8.95518-12.17006,0-20.15587-7.04168a22.65846,22.65846,0,0,1-8.01132-17.75727q0-13.16488,9.77177-20.20655,9.759-7.04168,28.1927-7.11822h10.18v-4.74548c0-3.827-.96952-6.8886-2.93408-9.1848s-5.07724-3.4443-9.31252-3.4443c-3.725,0-6.63358.893-8.75122,2.6789a9.10983,9.10983,0,0,0-3.18922,7.34784h-22.12043a22.21955,22.21955,0,0,1,4.43939-13.318,29.36786,29.36786,0,0,1,12.55277-9.61852,45.74679,45.74679,0,0,1,18.21682-3.46981q15.30826,0,24.31461,7.67951,8.9936,7.69227,8.98084,21.6353v35.89725q.07654,11.78716,3.29127,17.83381v1.30118Zm-18.29337-15.38453a19.06154,19.06154,0,0,0,9.03187-2.19415,14.30129,14.30129,0,0,0,6.1233-5.84255V740.26761h-8.26646q-16.60946,0-17.681,11.481l-.07654,1.30118a8.85543,8.85543,0,0,0,2.90857,6.81206A11.29811,11.29811,0,0,0,1182.43349,762.54075Z"/><path class="b" d="M1261.61477,674.7494V695.109h14.16014V711.3355h-14.16014v41.33159q0,4.5924,1.76045,6.58244t6.73563,1.99a35.27652,35.27652,0,0,0,6.506-.53578V777.466a45.53864,45.53864,0,0,1-13.39472,1.99q-23.26855,0-23.7278-23.49777V711.3355h-12.09352V695.109h12.09352V674.7494Z"/><path class="b" d="M1324.296,779.45608q-18.21682,0-29.6725-11.17484-11.44292-11.17484-11.43016-29.774v-2.14312a50.08343,50.08343,0,0,1,4.8221-22.32416,35.36145,35.36145,0,0,1,13.64986-15.15491,38.38566,38.38566,0,0,1,20.18138-5.30677q16.99216,0,26.73842,10.7156,9.759,10.7156,9.77177,30.38637v9.03172H1305.62a20.53566,20.53566,0,0,0,6.455,13.0118,19.58387,19.58387,0,0,0,13.67538,4.89856q12.78239,0,19.97727-9.26134l10.86886,12.16986a33.1793,33.1793,0,0,1-13.47126,10.97073A44.20335,44.20335,0,0,1,1324.296,779.45608Zm-2.52586-68.044a13.81234,13.81234,0,0,0-10.69026,4.46483q-4.095,4.43932-5.23032,12.75666h30.76959V726.8476c-.10205-4.89856-1.42877-8.72556-3.98015-11.40446C1330.08766,712.73874,1326.4647,711.412,1321.77017,711.412Z"/><path class="a" d="M1961.83337,221.08723h-8.09623v13.94262h-4.5685V200.56339h11.40991q5.82332,0,8.95976,2.65127,3.13624,2.65127,3.13644,7.71708a9.28055,9.28055,0,0,1-1.73959,5.61047,10.38858,10.38858,0,0,1-4.84083,3.57427l8.09543,14.62931v.28406h-4.876Zm-8.09623-3.71671h6.98345a7.87722,7.87722,0,0,0,5.38549-1.75456,5.93534,5.93534,0,0,0,2.00018-4.696,6.25014,6.25014,0,0,0-1.9055-4.90881,8.07236,8.07236,0,0,0-5.50364-1.7315h-6.96Zm6.60834-34.77955a35.09669,35.09669,0,1,1-35.09669,35.09669,35.13594,35.13594,0,0,1,35.09669-35.09669m0-4.55784A39.65453,39.65453,0,1,0,2000,217.68766a39.65407,39.65407,0,0,0-39.65453-39.65453Z"/></svg>