<svg xmlns="http://www.w3.org/2000/svg" viewBox="0 0 2000 786.95171"><title>Arity Logo</title><path d="M1964.013 220.239h-7.217v14.328h-6.472v-37.254h13.1q6.448 0 9.952 2.893 3.507 2.895 3.506 8.375a10.49 10.49 0 0 1-1.803 6.26 11.474 11.474 0 0 1-5.028 3.88l8.366 15.514v.332h-6.933zm-7.217-5.22h6.653a7.4 7.4 0 0 0 5.117-1.65 5.757 5.757 0 0 0 1.842-4.516 6.126 6.126 0 0 0-1.7-4.631 7.235 7.235 0 0 0-5.08-1.69h-6.832zm6.183-29.82a30.63 30.63 0 1 1-30.63 30.63 30.665 30.665 0 0 1 30.63-30.63m0-6.39a37.02 37.02 0 1 0 37.021 37.02 37.02 37.02 0 0 0-37.02-37.02zM463.048 454.651V178.828H337.367v55.67c-12.648-37.116-62.409-63.263-126.519-63.263-59.88 0-110.483 21.09-150.968 64.105C20.23 277.52 0 329.812 0 391.388c0 62.42 20.23 114.72 59.88 157.735 40.485 42.18 91.088 63.261 150.968 63.261 66.639 0 113.035-20.24 140.866-61.568q8.858 26.566 37.957 45.542c17.703 10.12 41.327 15.192 69.157 15.192 24.46 0 43.027-2.543 56.51-6.75V500.208c-7.585.828-15.183 1.678-21.081 1.678-22.775 0-31.21-13.497-31.21-47.235zm-150.983 12.655q-31.623 30.37-78.435 30.36c-30.366 0-55.667-10.113-76.756-30.36-21.088-21.082-31.208-46.393-31.208-75.918s10.12-54.827 31.208-75.067c21.089-21.09 46.39-31.217 76.756-31.217 31.2 0 57.353 10.128 78.435 31.217 21.93 20.24 32.9 45.543 32.9 75.067s-10.97 54.836-32.9 75.918zm382.442-230.272V178.83H568.84v425.122h125.668V396.446c0-70.011 42.178-110.498 113.87-110.498a216.575 216.575 0 0 1 42.178 4.221V172.08a278.666 278.666 0 0 0-32.908-2.527c-58.188 0-103.736 24.46-123.14 67.482zm279.562-94.483c39.649 0 71.692-31.203 71.692-70.847C1045.761 31.211 1013.718 0 974.07 0c-39.634 0-71.685 31.21-71.685 71.704 0 39.644 32.051 70.847 71.685 70.847zm63.26 312.103V178.831H911.662v312.932c0 80.138 37.1 119.79 111.334 119.79 27.83 0 47.234-2.543 58.19-6.757V497.662c-2.53.85-7.585 1.7-15.177 1.7-21.088 0-28.68-13.505-28.68-44.708zm56.924-161.954h55.659v170.38q0 151.831 146.763 151.843c24.46 0 44.705-1.693 61.566-5.914V497.662c-14.332 2.543-25.302 3.379-32.035 3.379-37.972 0-53.997-16.028-53.997-56.514V292.7h94.473V178.83h-272.43zm117.123-150.149c39.65 0 71.685-31.203 71.685-70.847 0-40.493-32.035-71.704-71.685-71.704-39.642 0-71.686 31.21-71.686 71.704 0 39.644 32.044 70.847 71.686 70.847zm549.434 36.28l-104.519 295.2-115.574-295.2h-128.21l181.36 445.36-6.797 18.542c-5.084 12.939-9.27 21.084-17.649 26.99-8.445 5.906-20.257 9.27-36.327 9.27-21.082 0-37.906-2.54-51.435-6.729v108.782c17.718 4.224 36.259 5.906 55.693 5.906 48.07 0 86.045-12.636 113.858-37.119 18.54-16.002 34.542-42.167 48.893-78.427l188.916-492.575z"/></svg>