<svg width="212" height="86" viewBox="0 0 212 86" xmlns="http://www.w3.org/2000/svg" xmlns:xlink="http://www.w3.org/1999/xlink"><title>Arity_Logo_Large_SM_Allstate_Navy_CMYK</title><defs><path id="a" d="M98.115.148H.045v81.726h196.14V.148z"/></defs><g fill="none" fill-rule="evenodd"><g transform="translate(.912 .613)"><mask id="b" fill="#fff"><use xlink:href="#a"/></mask><path d="M182.87 18.72l-10.855 30.657-12.003-30.657h-13.315l18.835 46.25-.705 1.926c-.529 1.344-.963 2.19-1.833 2.803-.878.614-2.105.963-3.774.963-2.189 0-3.936-.264-5.341-.699V81.26c1.84.439 3.766.614 5.784.614 4.992 0 8.936-1.313 11.825-3.855 1.925-1.662 3.587-4.38 5.078-8.145l19.62-51.154H182.87zm-57.062-3.767c4.119 0 7.445-3.241 7.445-7.358 0-4.206-3.326-7.447-7.445-7.447-4.116 0-7.445 3.241-7.445 7.447 0 4.117 3.329 7.358 7.445 7.358zm-12.163 15.592h5.78v17.694c0 10.512 5.081 15.77 15.242 15.77 2.54 0 4.643-.177 6.394-.615V51.83c-1.488.264-2.627.35-3.327.35-3.943 0-5.608-1.664-5.608-5.868V30.545h9.812V18.72h-28.293v11.825zm-5.912 16.82V18.72H94.68v32.498c0 8.322 3.854 12.44 11.563 12.44 2.89 0 4.905-.264 6.044-.702V51.831c-.263.088-.788.176-1.577.176-2.19 0-2.978-1.403-2.978-4.643zm-6.57-32.412c4.117 0 7.445-3.241 7.445-7.358 0-4.206-3.328-7.447-7.445-7.447-4.116 0-7.445 3.241-7.445 7.447 0 4.117 3.329 7.358 7.445 7.358zm-29.034 9.811V18.72H59.077v44.149H72.13v-21.55c0-7.27 4.38-11.475 11.825-11.475a22.5 22.5 0 0 1 4.381.438V18.02c-1.403-.174-2.54-.263-3.418-.263-6.043 0-10.774 2.54-12.788 7.008zm-39.72 23.914c-2.189 2.103-4.905 3.153-8.145 3.153-3.154 0-5.782-1.05-7.972-3.153-2.19-2.189-3.24-4.818-3.24-7.884 0-3.066 1.05-5.694 3.24-7.796 2.19-2.19 4.818-3.242 7.972-3.242 3.24 0 5.956 1.052 8.146 3.242 2.277 2.102 3.417 4.73 3.417 7.796s-1.14 5.695-3.417 7.884zm15.681-1.314V18.72H35.037v5.78c-1.313-3.855-6.481-6.57-13.139-6.57-6.219 0-11.475 2.19-15.68 6.658C2.102 28.969 0 34.399 0 40.794c0 6.482 2.101 11.914 6.219 16.381 4.204 4.38 9.46 6.57 15.679 6.57 6.92 0 11.739-2.103 14.63-6.394.613 1.839 1.927 3.415 3.941 4.729 1.839 1.051 4.293 1.578 7.183 1.578 2.54 0 4.469-.264 5.869-.7V52.094c-.788.086-1.577.175-2.19.175-2.365 0-3.241-1.402-3.241-4.906z" fill="#0E1923" mask="url(#b)"/></g><path d="M204.376 20.09c-.21-.151-.478-.23-.804-.23-.132 0-.264.017-.39.042a.998.998 0 0 0-.342.132.705.705 0 0 0-.238.248.765.765 0 0 0-.09.388c0 .145.044.264.129.354.085.09.202.163.344.22.145.06.305.106.486.145.18.036.367.078.553.122.189.044.373.095.554.155.18.059.343.14.486.24.145.103.258.23.344.385.088.155.129.35.129.582a1.2 1.2 0 0 1-.168.647 1.416 1.416 0 0 1-.435.436 1.905 1.905 0 0 1-.592.246c-.217.05-.434.075-.652.075a2.84 2.84 0 0 1-.752-.098 1.89 1.89 0 0 1-.62-.302 1.435 1.435 0 0 1-.424-.518 1.658 1.658 0 0 1-.156-.745h.595c0 .2.039.37.116.515.078.142.179.261.306.354.124.093.27.16.439.205a2.072 2.072 0 0 0 .944.025c.142-.025.272-.07.385-.134a.779.779 0 0 0 .28-.26.79.79 0 0 0 .105-.425.604.604 0 0 0-.13-.399.968.968 0 0 0-.343-.248 2.843 2.843 0 0 0-.486-.155l-.553-.121a6.52 6.52 0 0 1-.553-.148 1.994 1.994 0 0 1-.487-.217 1.04 1.04 0 0 1-.344-.352 1.031 1.031 0 0 1-.129-.537c0-.239.05-.445.145-.621a1.28 1.28 0 0 1 .388-.43c.16-.113.343-.196.55-.25.205-.057.414-.083.631-.083.243 0 .469.029.676.086.206.056.39.147.545.271.158.124.282.28.373.465.09.19.139.414.147.673h-.595c-.036-.34-.158-.584-.367-.737m3.328-.647l1.49 3.972 1.494-3.972h.86v4.727h-.594v-3.933h-.015l-1.474 3.933h-.538l-1.477-3.933h-.013v3.933h-.594v-4.727h.86" fill="#0E1923"/><path d="M6.762 81.898v-6.945H5.477V73.26h1.285v-.734c0-.969.278-1.722.834-2.257.556-.534 1.334-.8 2.335-.8.32 0 .71.053 1.173.157l-.023 1.775a2.921 2.921 0 0 0-.703-.072c-.868 0-1.302.41-1.302 1.231v.7h1.717v1.693H9.076v6.945H6.762m6.768-4.236c0 .822.154 1.45.463 1.884.308.433.75.651 1.325.651.56 0 .995-.215 1.31-.644.313-.428.47-1.115.47-2.06 0-.802-.157-1.428-.47-1.87-.315-.442-.757-.662-1.326-.662-.564 0-1 .218-1.31.66-.308.438-.462 1.12-.462 2.04zm-2.307-.163c0-.857.165-1.62.495-2.291.33-.67.805-1.19 1.424-1.556.62-.367 1.34-.551 2.16-.551 1.166 0 2.117.356 2.854 1.07.737.713 1.148 1.681 1.233 2.905l.016.591c0 1.325-.37 2.387-1.11 3.188-.739.8-1.731 1.203-2.977 1.203-1.245 0-2.24-.4-2.982-1.198-.742-.798-1.113-1.884-1.113-3.257v-.104zM25.59 81.02c-.569.692-1.357 1.038-2.362 1.038-.926 0-1.632-.267-2.12-.799-.487-.532-.736-1.311-.746-2.339v-5.66h2.307v5.586c0 .902.41 1.351 1.23 1.351.782 0 1.32-.27 1.612-.816v-6.12h2.315v8.637h-2.171l-.064-.878m6.016-7.76l.072.998c.618-.771 1.445-1.157 2.483-1.157.916 0 1.597.268 2.043.806.448.538.676 1.341.687 2.41v5.581h-2.307v-5.537c0-.49-.106-.847-.32-1.068-.212-.223-.566-.332-1.06-.332-.65 0-1.138.276-1.462.83v6.107h-2.307V73.26h2.171m8.9 4.418c0 .814.14 1.436.423 1.87.282.431.692.65 1.23.65.713 0 1.216-.304 1.509-.908v-3.424c-.288-.604-.785-.905-1.494-.905-1.112 0-1.668.905-1.668 2.717zm-2.307-.163c0-1.346.302-2.418.906-3.217.604-.798 1.43-1.197 2.479-1.197.84 0 1.535.314 2.084.942v-4.407h2.314v12.262H43.9l-.112-.918c-.574.718-1.315 1.078-2.22 1.078-1.016 0-1.832-.402-2.446-1.203-.615-.801-.922-1.913-.922-3.34zm12.823-2.554c-.458 0-.83.154-1.114.466-.285.308-.467.753-.547 1.33h3.21v-.187c-.011-.51-.15-.91-.416-1.189-.266-.282-.644-.42-1.133-.42zm.263 7.097c-1.266 0-2.298-.39-3.093-1.166-.796-.777-1.194-1.812-1.194-3.105v-.224c0-.867.168-1.644.503-2.328.336-.684.81-1.21 1.425-1.581.614-.37 1.316-.553 2.103-.553 1.182 0 2.112.372 2.79 1.118.68.744 1.018 1.801 1.018 3.169v.941h-5.5c.075.565.3 1.017.675 1.357.375.341.85.511 1.424.511.89 0 1.584-.321 2.084-.965l1.134 1.269c-.346.49-.814.87-1.406 1.144a4.609 4.609 0 0 1-1.963.413zm6.924-4.38c0 .814.14 1.436.423 1.87.281.431.691.65 1.229.65.713 0 1.216-.304 1.508-.908v-3.424c-.287-.604-.785-.905-1.492-.905-1.113 0-1.669.905-1.669 2.717zm-2.308-.163c0-1.346.302-2.418.906-3.217.604-.798 1.43-1.197 2.478-1.197.841 0 1.536.314 2.084.942v-4.407h2.316v12.262h-2.084l-.111-.918c-.576.718-1.315 1.078-2.22 1.078-1.017 0-1.832-.402-2.447-1.203-.614-.801-.922-1.913-.922-3.34zm18.63-.032c0-.875-.138-1.517-.415-1.919-.277-.4-.69-.603-1.238-.603-.734 0-1.24.3-1.517.905v3.419c.282.607.793.912 1.533.912.745 0 1.235-.369 1.47-1.106.111-.351.167-.887.167-1.608zm2.307.176c0 1.383-.296 2.461-.886 3.235-.591.775-1.416 1.164-2.475 1.164-.937 0-1.684-.36-2.243-1.078l-.104.918h-2.076V69.636h2.307v4.399c.533-.623 1.232-.934 2.1-.934 1.053 0 1.88.386 2.479 1.16.598.774.898 1.865.898 3.27v.128zm4.155.974l1.597-5.373h2.474l-3.472 9.98-.192.454c-.516 1.128-1.368 1.693-2.555 1.693a3.62 3.62 0 0 1-1.021-.152v-1.748l.35.007c.438 0 .763-.066.979-.2.215-.132.384-.353.507-.662l.272-.71-3.026-8.662h2.482l1.605 5.373m11.016-1.07h2.906l-1.46-4.35-1.445 4.35zm3.553 1.94h-4.199l-.798 2.395h-2.547l4.327-11.623h2.22l4.35 11.623H96.37l-.807-2.395zm3.998 2.395h2.315V69.636h-2.315zm3.808 0h2.314V69.636h-2.314zm8.485-2.388c0-.28-.14-.505-.42-.667-.279-.162-.726-.306-1.344-.433-2.054-.432-3.081-1.305-3.081-2.62 0-.765.317-1.406.953-1.92.635-.514 1.468-.77 2.495-.77 1.097 0 1.973.259 2.63.775.657.516.987 1.187.987 2.012h-2.307c0-.33-.106-.604-.32-.82-.213-.216-.545-.322-.997-.322-.389 0-.69.088-.903.264a.832.832 0 0 0-.32.67c0 .255.12.46.363.617.242.158.652.293 1.227.407a10.19 10.19 0 0 1 1.453.389c1.219.447 1.828 1.221 1.828 2.323 0 .788-.339 1.423-1.014 1.91-.676.488-1.55.733-2.619.733-.723 0-1.367-.131-1.929-.39-.562-.257-1-.61-1.32-1.06a2.468 2.468 0 0 1-.478-1.456h2.186c.022.41.174.724.456.942.282.218.66.327 1.133.327.442 0 .774-.085 1-.252a.782.782 0 0 0 .341-.658m6.408-8.374v2.123h1.477v1.693h-1.477v4.31c0 .32.062.548.183.687.123.138.357.207.703.207.256 0 .482-.018.679-.055v1.748a4.747 4.747 0 0 1-1.397.208c-1.618 0-2.443-.818-2.475-2.451v-4.654h-1.261V73.26h1.261v-2.123h2.307m5.973 9.157c.34 0 .655-.078.942-.23.288-.151.5-.353.64-.61v-1.483h-.863c-1.155 0-1.77.398-1.844 1.197l-.008.135c0 .288.1.525.303.711.203.186.479.28.83.28zm1.908 1.604a2.58 2.58 0 0 1-.231-.774c-.559.622-1.286.934-2.18.934-.846 0-1.546-.245-2.101-.735a2.362 2.362 0 0 1-.836-1.852c0-.915.34-1.618 1.019-2.107.679-.49 1.657-.738 2.94-.743h1.062v-.495c0-.399-.101-.718-.306-.958s-.53-.359-.971-.359c-.389 0-.692.093-.913.28-.22.185-.333.441-.333.766h-2.307c0-.5.155-.964.464-1.389.308-.426.744-.761 1.308-1.004.565-.242 1.198-.361 1.9-.361 1.065 0 1.911.266 2.537.8.625.536.936 1.289.936 2.258v3.743c.005.82.12 1.44.343 1.86v.136h-2.33zm6.351-10.761v2.123h1.476v1.693h-1.476v4.31c0 .32.061.548.184.687.121.138.356.207.702.207.255 0 .481-.018.678-.055v1.748a4.742 4.742 0 0 1-1.396.208c-1.619 0-2.444-.818-2.475-2.451v-4.654h-1.261V73.26h1.26v-2.123h2.308m6.274 3.824c-.458 0-.83.154-1.115.466-.285.308-.466.753-.546 1.33h3.21v-.187c-.011-.51-.15-.91-.416-1.189-.266-.282-.644-.42-1.133-.42zm.263 7.097c-1.266 0-2.299-.39-3.095-1.166-.795-.777-1.192-1.812-1.192-3.105v-.224c0-.867.168-1.644.503-2.328.336-.684.81-1.21 1.424-1.581.615-.37 1.317-.553 2.105-.553 1.182 0 2.11.372 2.788 1.118.679.744 1.02 1.801 1.02 3.169v.941h-5.5c.074.565.297 1.017.672 1.357.376.341.852.511 1.427.511.889 0 1.583-.321 2.083-.965L142.4 80.5c-.346.49-.814.87-1.405 1.144a4.615 4.615 0 0 1-1.964.413z" fill="#6E7D85"/></g></svg>