<svg id="Layer_1" data-name="Layer 1" xmlns="http://www.w3.org/2000/svg" viewBox="0 0 96 96"><defs><style>.cls-1{fill:#011c2c;}.cls-2{fill:#00b0b9;}</style></defs><title>Analytics_Insights</title><path class="cls-1" d="M87.77,88.08,74.24,73.89l-.31-.61.58-.36a22.27,22.27,0,0,0,5.43-4.68l.54-.65.58.62-.48.57h0l.54-.51L94,81.8ZM76.08,73.69,87.79,85.94,92,81.78l-11.41-12A23.76,23.76,0,0,1,76.08,73.69Z"/><path class="cls-1" d="M93.54,81.27l-12-12.61a23.74,23.74,0,1,0-6.74,5.83l12.47,13a.75.75,0,0,0,.53.23h0a.75.75,0,0,0,.53-.22l5.22-5.22A.75.75,0,0,0,93.54,81.27Zm-18.67-8.6a22.29,22.29,0,1,1,4.81-4.15q-.32.37-.66.72l-.54.55q-.38.38-.79.74l-.53.46c-.31.26-.64.52-1,.77l-.54.38Zm1.21,1c.63-.42,1.24-.88,1.82-1.36l.14-.12.76-.66.15-.14c.55-.51,1.08-1,1.59-1.59L87,76.58l-4.16,4.17ZM87.79,85.94l-3.93-4.11L88,77.66,92,81.78Z"/><path class="cls-2" d="M76.76,62.48a.75.75,0,0,1-.75-.75V49.31a.75.75,0,0,1,1.5,0V61.73A.75.75,0,0,1,76.76,62.48Z"/><path class="cls-2" d="M49.08,62.48a.75.75,0,0,1-.75-.75V49a.75.75,0,0,1,1.5,0V61.73A.75.75,0,0,1,49.08,62.48Z"/><path class="cls-2" d="M56,62.48a.75.75,0,0,1-.75-.75V45.06a.75.75,0,0,1,1.5,0V61.73A.75.75,0,0,1,56,62.48Z"/><path class="cls-2" d="M62.92,62.48a.75.75,0,0,1-.75-.75V49.22a.75.75,0,0,1,1.5,0V61.73A.75.75,0,0,1,62.92,62.48Z"/><path class="cls-2" d="M69.84,62.48a.75.75,0,0,1-.75-.75V44.61a.75.75,0,0,1,1.5,0V61.73A.75.75,0,0,1,69.84,62.48Z"/><path class="cls-1" d="M42.48,33.41H32.4a.75.75,0,1,0,0,1.5H42.48a.75.75,0,0,0,0-1.5Z"/><path class="cls-1" d="M39.85,60.41h-12a.82.82,0,0,1-.81-.8v-.77a2.66,2.66,0,0,1,2.63-2.66h.6l.13-.58a3.1,3.1,0,0,1,4.71-1.94l.5.32.43-.41a4,4,0,0,1,2.87-1.12l.37,0c0-.5.08-1,.14-1.49-.16,0-.32,0-.48,0a5.36,5.36,0,0,0-3.52,1.17,4.56,4.56,0,0,0-2-.46l.39,0a4.45,4.45,0,1,0-7.31,4.5,4.14,4.14,0,0,0-1,2.66v.77a2.3,2.3,0,0,0,2.31,2.29h12a4.38,4.38,0,0,0,.69-.07c-.17-.48-.32-1-.46-1.45ZM29.53,50a3,3,0,0,1,2.74,1.84,4.59,4.59,0,0,0-3.21,2.91,4.1,4.1,0,0,0-1.42.48h0A3,3,0,0,1,29.53,50Z"/><path class="cls-1" d="M48.73,73V84.83h-45v-59h45v9.13c.48-.36,1-.7,1.5-1V25.06a.75.75,0,0,0-.75-.75H15.79v-6H61.39v12c.5,0,1-.05,1.5-.05V17.51a.75.75,0,0,0-.75-.75H28.39v-7h45.1v23q.77.38,1.5.82V9a.75.75,0,0,0-.75-.75H27.64a.75.75,0,0,0-.75.75v7.77H15a.75.75,0,0,0-.75.75v6.8H3a.75.75,0,0,0-.75.75V85.58a.75.75,0,0,0,.75.75H49.48a.75.75,0,0,0,.75-.75V74C49.71,73.66,49.21,73.32,48.73,73Z"/><path class="cls-1" d="M26.75,40a9.75,9.75,0,0,0-19.5,0v2.75h19.5ZM15,41.25a2,2,0,0,1,4.09,0Zm10.3,0h-4.7a3.53,3.53,0,0,0-1.7-3l1.05-1.76a.75.75,0,0,0-1.29-.77l-1.22,2h0a3.42,3.42,0,0,0-3.93,3.5H8.75V40a8.25,8.25,0,0,1,16.5,0Z"/><path class="cls-1" d="M32.4,40.08h7.73a.75.75,0,0,0,0-1.5H32.4a.75.75,0,1,0,0,1.5Z"/><path class="cls-1" d="M41.62,74.7a3,3,0,1,0-3-3,3,3,0,0,0,.16.93l-5.51,3.49a3,3,0,0,0-4.14,0L23.58,72.6a3,3,0,0,0,.16-.93,3,3,0,0,0-6.06,0,3,3,0,0,0,.19,1l-5.62,3.83a3.09,3.09,0,1,0,.85,1.24l5.63-3.83a3,3,0,0,0,4.06-.07l5.51,3.49a3,3,0,0,0-.16.93,3,3,0,1,0,6.06,0,3,3,0,0,0-.16-.93l5.51-3.49A3,3,0,0,0,41.62,74.7Zm0-4.56a1.53,1.53,0,1,1-1.53,1.53A1.53,1.53,0,0,1,41.62,70.14ZM10.26,80.32a1.53,1.53,0,1,1,1.53-1.53A1.53,1.53,0,0,1,10.26,80.32ZM20.71,73.2a1.53,1.53,0,1,1,1.53-1.53A1.53,1.53,0,0,1,20.71,73.2Zm10.45,6.61a1.53,1.53,0,1,1,1.53-1.53A1.53,1.53,0,0,1,31.17,79.81Z"/><path class="cls-1" d="M8,59.43h8.73a.75.75,0,1,0,0-1.5H8a.75.75,0,0,0,0,1.5Z"/><path class="cls-1" d="M8,54.26H19.09a.75.75,0,1,0,0-1.5H8a.75.75,0,0,0,0,1.5Z"/></svg>