<svg xmlns="http://www.w3.org/2000/svg" viewBox="0 0 2000 786.95171"><title>Arity Logo</title><path fill="#000" d="M1964.01289,220.23866h-7.21661V234.567h-6.47273V197.31326h13.10023q6.44777,0,9.95248,2.89313,3.50658,2.89438,3.506,8.37486a10.4892,10.4892,0,0,1-1.80353,6.26055,11.47358,11.47358,0,0,1-5.02741,3.87915l8.36612,15.51409v.332h-6.93329Zm-7.21661-5.21962h6.65246a7.40018,7.40018,0,0,0,5.11728-1.65,5.75661,5.75661,0,0,0,1.84222-4.51569,6.126,6.126,0,0,0-1.70118-4.63176,7.23534,7.23534,0,0,0-5.07859-1.6887h-6.83219Zm6.18317-29.82017a30.6302,30.6302,0,1,1-30.6302,30.6302,30.66488,30.66488,0,0,1,30.6302-30.6302m0-6.39036A37.02055,37.02055,0,1,0,2000,215.82907a37.02055,37.02055,0,0,0-37.02056-37.02055Z"/><path fill="#000" d="M463.04767,454.651V178.82755H337.36682v55.67011C324.71915,197.38212,274.958,171.235,210.84846,171.235c-59.88028,0-110.48378,21.08969-150.96818,64.105C20.23019,277.51941,0,329.812,0,391.38835,0,453.80863,20.23019,506.10767,59.88028,549.123c40.4844,42.17938,91.08791,63.26106,150.96818,63.26106,66.63809,0,113.03477-20.23931,140.8651-61.56831q8.85882,26.5659,37.95743,45.54245c17.70322,10.11965,41.32673,15.19149,69.15705,15.19149,24.45943,0,43.02739-2.54313,56.50938-6.75017V500.20787c-7.58412.828-15.18265,1.67833-21.08052,1.67833C471.48212,501.8862,463.04767,488.38906,463.04767,454.651ZM312.06507,467.30578q-31.62319,30.371-78.43543,30.36057c-30.3653,0-55.66706-10.11325-76.75558-30.36057-21.08853-21.08168-31.20763-46.39283-31.20763-75.91743s10.1191-54.82774,31.20763-75.06705c21.08853-21.08969,46.39028-31.21735,76.75558-31.21735,31.20122,0,57.3533,10.12766,78.43543,31.21735,21.93085,20.23931,32.90028,45.54245,32.90028,75.06705S333.99593,446.2241,312.06507,467.30578Zm382.44237-230.2714V178.82915h-125.668v425.1216h125.668v-207.505c0-70.01123,42.17706-110.49786,113.86909-110.49786a216.57456,216.57456,0,0,1,42.17866,4.22146V172.079a278.66619,278.66619,0,0,0-32.90829-2.52711C759.45928,169.55187,713.91133,194.01264,694.50745,237.03438Zm279.56193-94.48321c39.64848,0,71.692-31.20294,71.692-70.84719,0-40.493-32.04355-71.704-71.692-71.704-39.63407,0-71.68563,31.21094-71.68563,71.704C902.38375,111.34823,934.4353,142.55117,974.06938,142.55117Zm63.25918,312.103V178.83075H911.66213v312.9326c0,80.13729,37.09909,119.78955,111.33411,119.78955,27.83033,0,47.23421-2.54313,58.18922-6.75658V497.66154c-2.52857.85038-7.58412,1.70076-15.17625,1.70076C1044.92068,499.3623,1037.32856,485.85714,1037.32856,454.65421Zm56.92414-161.95452h55.659V463.08111q0,151.83086,146.763,151.84287c24.45943,0,44.70563-1.69275,61.56653-5.91421V497.66154c-14.33232,2.54313-25.30175,3.37909-32.03554,3.37909-37.97184,0-53.99682-16.02746-53.99682-56.51409V292.69969h94.47321V178.83075h-272.4294Zm117.12309-150.14852c39.65009,0,71.68563-31.20294,71.68563-70.84719,0-40.493-32.03554-71.704-71.68563-71.704-39.64208,0-71.68563,31.21094-71.68563,71.704C1139.69015,111.34823,1171.7337,142.55117,1211.37578,142.55117Zm549.43393,36.27958L1656.29106,474.03193,1540.7165,178.83075H1412.50709L1593.8678,624.19166,1587.07,642.73342c-5.08437,12.93823-9.27037,21.08328-17.64877,26.98948-8.44566,5.9062-20.25742,9.27088-36.32723,9.27088-21.08212,0-37.90619-2.53992-51.43462-6.72935V781.04551c17.71763,4.22466,36.25837,5.9062,55.69268,5.9062,48.07012,0,86.04517-12.63556,113.85788-37.11875,18.54074-16.00183,34.54169-42.16656,48.89323-78.42693l188.916-492.57529Z"/></svg>
