<?xml version="1.0" encoding="utf-8"?><svg xmlns="http://www.w3.org/2000/svg" xmlns:xlink="http://www.w3.org/1999/xlink"><symbol id="accident-prediction" viewBox="0 0 61 61" xml:space="preserve" xmlns="http://www.w3.org/2000/svg"><style>.aast9{fill:#051c2c}.aast82{stroke-linecap:round}.aast82,.aast93{fill:none;stroke:#051c2c;stroke-width:2;stroke-linejoin:round;stroke-miterlimit:10}</style><path class="aast9" d="M30.5 2.5c15.4 0 28 12.6 28 28s-12.6 28-28 28-28-12.6-28-28 12.6-28 28-28m0-2C13.9.5.5 13.9.5 30.5s13.4 30 30 30 30-13.4 30-30-13.4-30-30-30z"/><path class="aast82" d="M39.9 22.7l2.3-5.2 1.3 5.2 4.5-2.8-2 5.3 5.2 2.2-5.2 1.3 2.7 4.5-5.2-2"/><path class="aast93" d="M15.1 28.4l2.7-8.5c.1-.3.3-.5.7-.5h16.1c.3 0 .6.2.7.5l2.7 8.4M39.5 37.5H13.9v-8.4c0-.4.3-.6.6-.6H38.7c.4 0 .6.3.6.6v7.8l.2.6"/><circle class="aast93" cx="18.1" cy="33.2" r="1.5"/><circle class="aast93" cx="35.6" cy="33.2" r="1.5"/><path class="aast93" d="M16.4 37.6v2.8c0 .7-.6 1.3-1.3 1.3-.7 0-1.3-.6-1.3-1.3v-3M39.5 37.4v3c0 .7-.6 1.3-1.3 1.3-.7 0-1.3-.6-1.3-1.3v-2.8"/></symbol><symbol viewBox="0 0 1200 457.412" id="arity-logo" xmlns="http://www.w3.org/2000/svg"><path fill="#011c2cF" d="M1159.323 178.746a34.143 34.143 0 1 0-34.143-34.143 34.143 34.143 0 0 0 34.143 34.143zm0 6.534A40.677 40.677 0 1 1 1200 144.603a40.677 40.677 0 0 1-40.677 40.677zm1.467-35.972h-7.944v15.805h-7.128v-41.02h14.424q7.1 0 10.96 3.184 3.86 3.184 3.859 9.212a11.532 11.532 0 0 1-1.986 6.889 12.638 12.638 0 0 1-5.536 4.268l9.212 17.1v.367h-7.634l-8.227-15.805zm-7.944-5.719h7.325a8.146 8.146 0 0 0 5.634-1.817 6.336 6.336 0 0 0 2.028-4.973 6.746 6.746 0 0 0-1.873-5.099 7.959 7.959 0 0 0-5.592-1.86h-7.522v13.75zm-129.38-39.639L962.71 275.532 895.535 103.95h-74.519L926.43 362.807l-3.96 10.781c-2.94 7.515-5.384 12.259-10.259 15.683-4.9 3.437-11.762 5.384-21.106 5.384-12.259 0-22.034-1.476-29.889-3.894v63.227a139.595 139.595 0 0 0 32.359 3.424c27.941 0 50.014-7.344 66.18-21.576 10.783-9.293 20.075-24.505 28.426-45.572l109.805-286.314zM704.103 82.857c23.053 0 41.676-18.14 41.676-41.18a41.67 41.67 0 1 0-83.34 0c0 23.04 18.636 41.18 41.664 41.18zm-68.076 87.274h32.358v99.037q0 88.254 85.301 88.254c14.219 0 25.994-.98 35.796-3.437v-64.718a112.635 112.635 0 0 1-18.623 1.96c-22.087 0-31.392-9.317-31.392-32.841V170.13h54.916v-66.18H636.026v66.18zm-33.078 94.136V103.95h-73.042v181.88c0 46.591 21.563 69.632 64.704 69.632 16.18 0 27.458-1.477 33.822-3.92v-62.275a30.79 30.79 0 0 1-8.821.98c-12.259 0-16.663-7.84-16.663-25.98zm-36.776-181.41c23.04 0 41.677-18.14 41.677-41.18a41.67 41.67 0 1 0-83.34 0c0 23.04 18.636 41.18 41.663 41.18zm-162.486 54.916v-33.836h-73.055v247.107h73.055V230.431c0-40.696 24.504-64.234 66.181-64.234a126.385 126.385 0 0 1 24.517 2.457v-68.638a163.702 163.702 0 0 0-19.133-1.463c-33.822 0-60.3 14.219-71.565 39.22zM181.384 271.61q-18.369 17.663-45.585 17.656c-17.656 0-32.359-5.88-44.617-17.656-12.259-12.245-18.14-26.96-18.14-44.12 0-17.16 5.881-31.862 18.14-43.624 12.258-12.26 26.961-18.153 44.617-18.153 18.14 0 33.339 5.894 45.585 18.153 12.742 11.762 19.132 26.464 19.132 43.624q0 25.74-19.132 44.12zm87.757-7.344v-160.33H196.1v32.359c-7.358-21.577-36.28-36.763-73.552-36.763-34.802 0-64.207 12.259-87.745 37.26C11.762 161.31 0 191.707 0 227.49c0 36.292 11.762 66.677 34.802 91.678 23.538 24.518 52.943 36.79 87.745 36.79 38.736 0 65.71-11.776 81.877-35.796q5.156 15.427 22.073 26.477c10.286 5.881 24.021 8.822 40.2 8.822 14.207 0 25.001-1.477 32.843-3.92v-60.798c-4.417.47-8.835.968-12.259.968-13.239 0-18.14-7.842-18.14-27.445z"/></symbol><symbol viewBox="0 0 2714 1024" id="arity-logo-old" xmlns="http://www.w3.org/2000/svg"><path d="M77.903 306.152c52.668-55.945 118.511-83.388 196.403-83.388 83.422 0 148.139 33.997 164.591 82.295v-72.431h163.499v358.81c0 43.895 10.991 61.474 40.619 61.474 7.68 0 17.545-1.126 27.409-2.185v136.055c-17.51 5.461-41.677 8.772-73.489 8.772-36.215 0-66.97-6.588-89.975-19.763-25.259-16.452-41.711-36.215-49.391-59.255-36.215 53.794-96.563 80.111-183.262 80.111-77.892 0-143.735-27.443-196.403-82.295C26.329 658.407.012 590.346.012 509.142c0-80.077 26.317-148.105 77.892-202.991zm328.089 301.773c28.535-27.443 42.803-60.348 42.803-98.782 0-38.4-14.268-71.305-42.803-97.655-27.443-27.409-61.44-40.585-102.059-40.585-39.492 0-72.397 13.175-99.84 40.585-27.443 26.351-40.619 59.255-40.619 97.655 0 38.434 13.175 71.339 40.619 98.782 27.443 26.317 60.348 39.492 99.84 39.492 40.619 0 74.615-13.175 102.059-39.492zM740.041 785.678V232.65H903.54v75.708c25.225-55.979 84.48-87.791 160.188-87.791 10.991 0 25.259 1.126 42.803 3.277v153.634c-16.452-3.277-35.123-5.495-54.852-5.495-93.286 0-148.139 52.668-148.139 143.77v269.926H740.041zM1267.231 0c51.575 0 93.252 40.585 93.252 93.286 0 51.575-41.677 92.16-93.252 92.16s-93.252-40.585-93.252-92.16c0-52.702 41.677-93.286 93.252-93.286zM1186.041 232.639h163.499v358.81c0 40.585 9.865 58.163 37.308 58.163 9.865 0 16.452-1.092 19.729-2.219v139.366c-14.234 5.495-39.492 8.806-75.708 8.806-96.563 0-144.828-51.575-144.828-155.853V232.638zM1778.005 232.639v148.139h-122.914v197.495c0 52.668 20.855 73.523 70.246 73.523 8.772 0 23.04-1.092 41.677-4.403v144.862c-21.914 5.495-48.265 7.68-80.077 7.68-127.283 0-190.942-65.843-190.942-197.53V380.777h-72.397V232.638h354.406zM1560.986 0c51.575 0 93.252 40.585 93.252 93.286 0 51.575-41.677 92.16-93.252 92.16s-93.252-40.585-93.252-92.16c0-52.702 41.677-93.286 93.252-93.286zM1927.584 874.701c17.613 5.461 39.492 8.772 66.901 8.772 20.924 0 36.284-4.403 47.275-12.083 10.889-7.68 16.35-18.261 22.972-35.089l8.841-24.132-235.964-579.379h166.81l150.357 384.034 135.987-384.034h166.775l-245.76 640.785c-18.671 47.172-39.492 81.203-63.625 102.025-36.181 31.846-85.572 48.299-148.105 48.299-25.293 0-49.425-2.185-72.465-7.68V874.702zM2676.702 235.554h27.648v91.853h-17.92v-77.005l-17.203 77.005h-18.944l-17.203-77.005v77.005h-17.92v-91.853h27.955l16.896 72.397 16.691-72.397zm-132.608 63.693c.614 4.096 1.843 7.168 3.482 9.318 3.174 3.891 8.397 5.837 15.974 5.837 4.506 0 8.397-.512 11.264-1.536 5.325-1.946 7.885-5.427 7.885-10.752 0-3.072-1.331-5.427-3.789-7.168-2.765-1.536-6.861-2.97-12.595-4.403l-9.728-1.946c-9.728-2.253-16.384-4.608-19.968-7.27-6.349-4.198-9.421-10.752-9.421-19.661 0-8.294 2.97-15.36 9.011-20.685 6.144-5.53 14.848-8.192 26.522-8.192 9.728 0 18.022 2.458 24.883 7.68 6.758 5.12 10.342 12.595 10.65 22.528h-18.33c-.41-5.632-2.765-9.626-7.27-11.878-2.97-1.434-6.758-2.253-11.162-2.253-5.018 0-9.011 1.024-11.878 2.97-3.072 1.946-4.506 4.71-4.506 8.294 0 3.174 1.434 5.734 4.301 7.373 1.843 1.024 5.837 2.355 12.083 3.891l15.77 3.891c7.066 1.638 12.288 3.891 15.974 6.554 5.427 4.301 8.192 10.547 8.192 18.739 0 8.602-3.277 15.565-9.728 21.094-6.554 5.632-15.565 8.397-27.443 8.397-11.981 0-21.402-2.765-28.16-8.192-6.758-5.53-10.24-13.005-10.24-22.63h18.227z"/></symbol><symbol viewBox="0 0 17 12" id="arrow-left" xmlns="http://www.w3.org/2000/svg"><path d="M5.707.293a.999.999 0 1 1 1.414 1.414L3.828 5h11.628a1 1 0 0 1 0 2H3.828l3.293 3.293a.999.999 0 1 1-1.414 1.414L0 6 5.707.293z"/></symbol><symbol viewBox="0 0 12 22" id="arrow-left-short" xmlns="http://www.w3.org/2000/svg"><path d="M11 22a.999.999 0 0 0 .707-1.707L2.414 11l9.293-9.293A.999.999 0 1 0 10.293.293l-10 10a.999.999 0 0 0 0 1.414l10 10A.997.997 0 0 0 11 22L1.936 10.882"/></symbol><symbol viewBox="0 0 17 12" id="arrow-right" xmlns="http://www.w3.org/2000/svg"><path d="M10.749.293a.999.999 0 1 0-1.414 1.414L12.628 5H1a1 1 0 0 0 0 2h11.628l-3.293 3.293a.999.999 0 1 0 1.414 1.414L16.456 6 10.749.293z"/></symbol><symbol viewBox="0 0 12 22" id="arrow-right-short" xmlns="http://www.w3.org/2000/svg"><defs><path d="M1 22a.999.999 0 0 1-.707-1.707L9.586 11 .293 1.707A.999.999 0 1 1 1.707.293l10 10a.999.999 0 0 1 0 1.414l-10 10A.997.997 0 0 1 1 22" id="aga"/></defs><use xlink:href="#aga"/></symbol><symbol viewBox="0 0 11 6" id="arrow-solid-down" xmlns="http://www.w3.org/2000/svg"><path d="M11 0L5.5 5.954 0 0z"/></symbol><symbol viewBox="0 0 1024 1024" id="caret" xmlns="http://www.w3.org/2000/svg"><path d="M234.792 849.192c-39.99 39.99-39.99 104.826 0 144.815s104.826 39.99 144.815 0l482.008-482.008L379.607 29.991c-39.99-39.99-104.826-39.99-144.815 0s-39.99 104.826 0 144.815l337.192 337.192L234.792 849.19z"/></symbol><symbol viewBox="0 0 17 17" id="close" xmlns="http://www.w3.org/2000/svg"><path d="M9.94 8.5l6.762-6.762a1.02 1.02 0 0 0-1.44-1.44L8.5 7.06 1.738.298a1.02 1.02 0 0 0-1.44 1.44L7.06 8.5.298 15.26a1.02 1.02 0 0 0 1.44 1.44L8.5 9.94l6.762 6.762a1.016 1.016 0 0 0 1.44 0 1.02 1.02 0 0 0 0-1.44L9.94 8.5z"/></symbol><symbol viewBox="0 0 1117 1024" id="download" xmlns="http://www.w3.org/2000/svg"><path d="M824.18 500.317L558.545 765.952 292.91 500.317c-9.076-9.076-13.638-20.992-13.638-32.908s4.561-23.831 13.638-32.908c18.199-18.199 47.616-18.199 65.815 0l153.274 153.274V46.544c0-25.693 20.852-46.545 46.545-46.545s46.545 20.852 46.545 46.545v541.231l153.274-153.274c18.199-18.199 47.616-18.199 65.815 0s18.199 47.616 0 65.815zM46.545 1024C20.852 1024 0 1003.74 0 978.675V650.416c0-25.019 20.852-45.325 46.545-45.325s46.545 20.306 46.545 45.325V933.35h930.909V650.416c0-25.019 20.852-45.325 46.545-45.325s46.545 20.306 46.545 45.325v328.259c0 25.065-20.852 45.325-46.545 45.325h-1024z"/></symbol><symbol id="driver-safety" viewBox="0 0 61 61" xmlns="http://www.w3.org/2000/svg"><defs><style>.alcls-1{fill:#051c2c}.alcls-2{fill:#fff;stroke:#011c2c;stroke-linecap:round;stroke-linejoin:round;stroke-width:2px}</style></defs><path class="alcls-1" d="M30.5 2.5a28 28 0 1 1-28 28 28 28 0 0 1 28-28m0-2a30 30 0 1 0 30 30 30 30 0 0 0-30-30z"/><path class="alcls-2" d="M42 43.82L30.5 50.5l-11.62-6.65a8.88 8.88 0 0 1-4.38-7.66V15.92c6.77.21 12.58-1.22 16-5.42 3.37 4.39 8.73 5.92 16 5.42V36.1a8.88 8.88 0 0 1-4.5 7.72z"/><path class="alcls-2" d="M30.3 29.88h.32a3.34 3.34 0 0 0 3.3-3.22V24a3.34 3.34 0 0 0-3.3-3.22h-.32A3.22 3.22 0 0 0 27.08 24v2.62a3.22 3.22 0 0 0 3.22 3.26zm8 5.59a.87.87 0 0 0-.35-.41 14.14 14.14 0 0 0-7.46-2.42h-.06A14.14 14.14 0 0 0 23 35.06a.87.87 0 0 0-.35.41 3.71 3.71 0 0 0-.16.57v3.14h16V36a3.67 3.67 0 0 0-.15-.53z"/></symbol><symbol id="driving-behavior" viewBox="0 0 61 61" xmlns="http://www.w3.org/2000/svg"><defs><style>.amcls-1{fill:#051c2c}.amcls-2,.amcls-3{fill:none;stroke:#051c2c;stroke-width:2px}.amcls-2{stroke-miterlimit:10}.amcls-3{stroke-linecap:round;stroke-linejoin:round}</style></defs><path class="amcls-1" d="M30.5 2.5a28 28 0 1 1-28 28 28 28 0 0 1 28-28m0-2a30 30 0 1 0 30 30 30 30 0 0 0-30-30z"/><circle class="amcls-2" cx="19.49" cy="35.76" r="3.5"/><path class="amcls-3" d="M43.52 47.63l4.08-4.08-4.08-4.07m-9.94-15.64l3.96-5.66 3.97 5.66h-7.93z"/><path class="amcls-3" d="M22.78 13.37h20.28a7.57 7.57 0 0 1 7.55 7.55 7.57 7.57 0 0 1-7.55 7.55H32.7"/><path class="amcls-3" d="M41.82 28.46H17.94A7.57 7.57 0 0 0 10.4 36a7.57 7.57 0 0 0 7.55 7.55h28.37"/></symbol><symbol viewBox="0 0 61 61" id="driving-engine-sdk" xmlns="http://www.w3.org/2000/svg"><g fill="none" fill-rule="evenodd"><path d="M30.5 2.5c15.464 0 28 12.536 28 28s-12.536 28-28 28-28-12.536-28-28 12.536-28 28-28zm0-2C13.931.5.5 13.931.5 30.5c0 16.569 13.431 30 30 30 16.569 0 30-13.431 30-30 0-16.569-13.431-30-30-30z" fill="#051C2C" fill-rule="nonzero"/><path d="M38.71 47.25H22.29a1.23 1.23 0 0 1-1.1-1.33V15.07a1.23 1.23 0 0 1 1.1-1.33h16.42a1.23 1.23 0 0 1 1.1 1.33v30.86a1.23 1.23 0 0 1-1.1 1.32h0z" stroke="#051C2C" stroke-width="2"/><path stroke="#051C2C" stroke-width="2" d="M21.19 18.12h18.62v22.62H21.19z"/><path d="M31.9 44.09a1.4 1.4 0 1 1-2.8 0 1.4 1.4 0 0 1 2.8 0" fill="#051C2C"/><path d="M34.53 25.61v9.42m-4.34-5.93v5.93m-4.34-7.36v7.37" stroke="#051C2C" stroke-width="2" stroke-linecap="round"/></g></symbol><symbol id="driving-score" viewBox="0 0 61 61" xmlns="http://www.w3.org/2000/svg"><defs><style>.aocls-1{fill:none;stroke:#051c2c;stroke-linecap:round;stroke-miterlimit:10;stroke-width:2px}.aocls-2{fill:#051c2c}</style></defs><path class="aocls-1" d="M42.78 16.22l.51 14.06-16.56 16.55a1.8 1.8 0 0 1-2.55 0l-12-12a1.8 1.8 0 0 1 0-2.55l16.37-16.4.17-.17z"/><circle class="aocls-1" cx="38.03" cy="20.97" r="1.9" transform="rotate(-45 38.026 20.97)"/><path class="aocls-1" d="M39.94 19.06l5.42-5.42"/><path class="aocls-2" d="M30.5 2.5a28 28 0 1 1-28 28 28 28 0 0 1 28-28m0-2a30 30 0 1 0 30 30 30 30 0 0 0-30-30z"/></symbol><symbol viewBox="0 0 23 16" id="email" xmlns="http://www.w3.org/2000/svg"><path d="M8.131 8.563l2.758 2.52a.805.805 0 0 0 1.08 0l2.757-2.52 5.365 5.099H2.766l5.365-5.099zm13.131-5.96v9.975l-5.357-5.09 5.357-4.885zm-19.667 0l5.357 4.885-5.357 5.09V2.603zm1.22-1.027h17.227l-8.613 7.858-8.613-7.858zM1.064 0C.488 0 0 .482 0 1.05v13.137c0 .569.488 1.051 1.063 1.051h20.731c.575 0 1.063-.482 1.063-1.05V1.05C22.857.482 22.37 0 21.794 0H1.064z"/></symbol><symbol viewBox="0 0 22 12" id="external" xmlns="http://www.w3.org/2000/svg"><path d="M15.704.293L21.411 6l-5.707 5.707a.997.997 0 0 1-1.414 0 .999.999 0 0 1 0-1.414L17.583 7H5.955a1 1 0 0 1 0-2h11.628L14.29 1.707A.999.999 0 1 1 15.704.293zM6.001 12.005a5.988 5.988 0 0 1-4.246-1.755 6.014 6.014 0 0 1 0-8.492 6.014 6.014 0 0 1 8.492 0 1 1 0 0 1-1.414 1.414 4.012 4.012 0 0 0-5.664 0 4.01 4.01 0 0 0 0 5.664 4.01 4.01 0 0 0 5.664 0 .999.999 0 1 1 1.414 1.414 5.988 5.988 0 0 1-4.246 1.755z"/></symbol><symbol viewBox="0 0 119 125" id="icon-careers-loading" xmlns="http://www.w3.org/2000/svg"><defs><path d="M99.54 56.649c5.154-8.213 8.134-17.93 8.134-28.341 0-10.345-2.942-20.002-8.035-28.182H8.92C3.826 8.306.884 17.963.884 28.308c0 10.412 2.98 20.128 8.134 28.341H99.54z" id="ara"/></defs><g fill="none" fill-rule="evenodd"><path d="M118.057 59.308c0 32.463-26.317 58.779-58.78 58.778C26.815 118.086.499 91.77.5 59.308.501 26.846 26.818.53 59.28.53c32.463 0 58.778 26.316 58.777 58.778" fill="#FFFFFE"/><path d="M59.28 1.03C27.146 1.03 1.001 27.173 1 59.308c0 15.567 6.062 30.201 17.068 41.209 11.007 11.007 25.643 17.07 41.209 17.07 32.135 0 58.28-26.144 58.281-58.279 0-15.566-6.062-30.201-17.069-41.209C89.482 7.092 74.848 1.03 59.28 1.03m-.003 117.557c-15.834 0-30.719-6.166-41.916-17.363C6.165 90.028 0 75.142 0 59.308.001 26.622 26.594.03 59.28.03 75.114.03 90 6.196 101.196 17.392c11.197 11.197 17.362 26.082 17.362 41.916-.001 32.687-26.594 59.279-59.281 59.279" fill="#0F181F"/><path d="M59.279 112.703c-29.489 0-53.395-23.906-53.395-53.395 0-29.489 23.906-53.395 53.395-53.395 29.489 0 53.395 23.906 53.395 53.395 0 29.489-23.906 53.395-53.395 53.395" fill="#EFF0EE"/><g transform="translate(5 31)"><mask id="arb" fill="#fff"><use xlink:href="#ara"/></mask><path d="M58.175 1.126h-.25a.5.5 0 0 1 0-1h.25a.5.5 0 1 1 0 1m-24.292 0h-.491a.5.5 0 1 1 0-1h.491a.5.5 0 1 1 0 1zm2.453 0h-.491a.5.5 0 0 1 0-1h.491a.499.499 0 1 1 0 1zm2.453 0h-.491a.5.5 0 0 1 0-1h.491a.499.499 0 1 1 0 1zm2.453 0h-.49a.5.5 0 0 1 0-1h.49a.499.499 0 1 1 0 1zm2.453 0h-.49a.5.5 0 0 1 0-1h.49a.5.5 0 1 1 0 1zm2.454 0h-.491a.5.5 0 0 1 0-1h.491a.5.5 0 1 1 0 1zm2.454 0h-.491a.5.5 0 1 1 0-1h.491a.5.5 0 1 1 0 1zm2.453 0h-.491a.5.5 0 1 1 0-1h.491a.5.5 0 1 1 0 1zm2.453 0h-.491a.5.5 0 1 1 0-1h.491a.5.5 0 1 1 0 1zm2.453 0h-.49a.5.5 0 0 1 0-1h.49a.5.5 0 1 1 0 1zm-24.533 0h-.25a.5.5 0 0 1 0-1h.25a.5.5 0 1 1 0 1m21.582 12.278h-.25a.5.5 0 0 1 0-1h.25a.5.5 0 0 1 0 1m-2.547 0h-.574a.5.5 0 1 1 0-1h.574a.5.5 0 0 1 0 1m-2.87 0h-.25a.5.5 0 0 1 0-1h.25a.5.5 0 0 1 0 1M10.935 7.177H2.196a.5.5 0 1 1 0-1h8.739a.5.5 0 0 1 0 1m41.351 0h-8.489a.5.5 0 1 1 0-1h8.489a.5.5 0 1 1 0 1m-13.489 0H16.101a.5.5 0 1 1 0-1h22.696a.5.5 0 0 1 0 1m3.547 6.227H19.648a.5.5 0 1 1 0-1h22.696a.5.5 0 0 1 0 1M.961 56.649h-.25a.5.5 0 1 1 0-1h.25a.5.5 0 1 1 0 1m2.672 0h-.534a.499.499 0 1 1 0-1h.534a.5.5 0 0 1 0 1zm2.672 0h-.534a.499.499 0 1 1 0-1h.534a.5.5 0 0 1 0 1zm2.672 0h-.534a.499.499 0 1 1 0-1h.534a.5.5 0 0 1 0 1zm2.672 0h-.535a.5.5 0 1 1 0-1h.535a.5.5 0 0 1 0 1zm2.671 0h-.534a.5.5 0 1 1 0-1h.534a.5.5 0 1 1 0 1zm2.388 0h-.25a.5.5 0 1 1 0-1h.25a.5.5 0 1 1 0 1m9.71 0h-5.664a.5.5 0 1 1 0-1h5.664a.5.5 0 1 1 0 1m-5.949-7.939H3.952a.5.5 0 0 1 0-1h16.517a.5.5 0 1 1 0 1M108.3 27.691h-.25a.5.5 0 0 1 0-1h.25a.5.5 0 0 1 0 1m-21.877 0h-.492a.5.5 0 0 1 0-1h.492a.5.5 0 0 1 0 1zm2.457 0h-.491a.5.5 0 0 1 0-1h.491a.5.5 0 1 1 0 1zm2.458 0h-.492a.5.5 0 0 1 0-1h.492a.5.5 0 1 1 0 1zm2.457 0h-.491a.5.5 0 1 1 0-1h.491a.5.5 0 1 1 0 1zm2.458 0h-.492a.5.5 0 0 1 0-1h.492a.5.5 0 1 1 0 1zm2.457 0h-.491a.5.5 0 0 1 0-1h.491a.5.5 0 1 1 0 1zm2.458 0h-.491a.5.5 0 0 1 0-1h.491a.5.5 0 1 1 0 1zm2.457 0h-.491a.5.5 0 0 1 0-1h.491a.5.5 0 1 1 0 1zm2.458 0h-.491a.5.5 0 0 1 0-1h.491a.5.5 0 1 1 0 1zm-22.117 0h-.25a.5.5 0 0 1 0-1h.25a.5.5 0 0 1 0 1m31.753-5.684H97.616a.5.5 0 1 1 0-1h18.103a.5.5 0 0 1 0 1" fill="#707F87" mask="url(#arb)"/></g><path d="M42.669 124.5v-19.446c0-9.136 7.474-16.61 16.61-16.61 9.135 0 16.61 7.474 16.61 16.61V124.5h-33.22" fill="#DEE2E3"/><g fill="#0F181F"><path d="M35.693 52.887h47.171a.5.5 0 0 0 0-1H35.693a.5.5 0 0 0 0 1M82.864 124H35.693a.5.5 0 0 0 0 1h47.171a.5.5 0 0 0 0-1"/><path d="M42.669 124.5h.5v-19.446c0-4.43 1.811-8.455 4.733-11.378 2.922-2.921 6.947-4.732 11.377-4.732 4.43 0 8.455 1.811 11.377 4.732 2.921 2.923 4.732 6.948 4.733 11.378V124h-32.72v.5h.5-.5v.5h33.22a.503.503 0 0 0 .5-.5v-19.446c-.002-9.414-7.696-17.108-17.11-17.11-9.414.002-17.108 7.696-17.11 17.11V124.5c0 .132.053.261.146.354a.505.505 0 0 0 .354.146v-.5"/></g><path d="M75.889 52.387v19.447c0 9.135-7.475 16.61-16.61 16.61-9.136 0-16.61-7.475-16.61-16.61V52.387h33.22" fill="#FFFFFE"/><path d="M75.889 68.387v3.447c0 9.135-7.475 16.61-16.61 16.61-9.136 0-16.61-7.475-16.61-16.61v-3.447h33.22" fill="#768693" opacity=".2"/><path d="M75.889 52.387h-.5v19.447c-.001 4.43-1.812 8.455-4.733 11.377-2.922 2.921-6.947 4.733-11.377 4.733-4.43 0-8.455-1.812-11.377-4.733-2.922-2.922-4.733-6.947-4.733-11.377V52.887h32.72v-.5h-.5.5v-.5h-33.22a.503.503 0 0 0-.5.5v19.447c.002 9.414 7.696 17.108 17.11 17.11 9.414-.002 17.108-7.696 17.11-17.11V52.387a.504.504 0 0 0-.5-.5v.5" fill="#0F181F"/></g></symbol><symbol viewBox="0 0 36 46" id="map-marker" xmlns="http://www.w3.org/2000/svg"><path d="M0 18c0 9.941 18 28 18 28s18-18.059 18-28c0-9.941-8.059-18-18-18S0 8.059 0 18zm9 0a9 9 0 0 0 9 9 9 9 0 0 0 9-9 9 9 0 0 0-9-9 9 9 0 0 0-9 9z" fill="#E0F205" fill-rule="evenodd"/></symbol><symbol viewBox="325 220 22 3" id="minus" xmlns="http://www.w3.org/2000/svg"><defs><path d="M1 .25a1 1 0 1 0 0 2h20a1 1 0 1 0 0-2H1z" id="ata"/></defs><path d="M326 220.25a1 1 0 1 0 0 2h20a1 1 0 1 0 0-2h-20z"/><g transform="translate(325 220)"><mask id="atb" fill="#fff"><use xlink:href="#ata"/></mask><g mask="url(#atb)"><path d="M-7-15h33v33H-7z"/></g></g></symbol><symbol viewBox="0 0 61 61" id="mobile-sensors" xmlns="http://www.w3.org/2000/svg"><g fill="none" fill-rule="evenodd"><path d="M30.5 2.5c15.464 0 28 12.536 28 28s-12.536 28-28 28-28-12.536-28-28 12.536-28 28-28zm0-2C13.931.5.5 13.931.5 30.5c0 16.569 13.431 30 30 30 16.569 0 30-13.431 30-30 0-16.569-13.431-30-30-30z" fill="#051C2C" fill-rule="nonzero"/><path d="M38.71 47.25H22.29a1.23 1.23 0 0 1-1.1-1.33V15.07a1.23 1.23 0 0 1 1.1-1.33h16.42a1.23 1.23 0 0 1 1.1 1.33v30.86a1.23 1.23 0 0 1-1.1 1.32h0z" stroke="#051C2C" stroke-width="2"/><path stroke="#051C2C" stroke-width="2" d="M21.19 18.12h18.62v22.62H21.19z"/><path d="M31.9 44.09a1.4 1.4 0 1 1-2.8 0 1.4 1.4 0 0 1 2.8 0" fill="#051C2C"/><path d="M25 26.48a7.79 7.79 0 0 1 11 .25M26.53 29.73a5.16 5.16 0 0 1 7.8.1M28 32.68a2.95 2.95 0 0 1 4.78 0" stroke="#011C2C" stroke-width="2" stroke-linecap="round" stroke-linejoin="round"/></g></symbol><symbol id="mobility-analytics-report" viewBox="0 0 61 61" xmlns="http://www.w3.org/2000/svg"><defs><style>.avcls-1{fill:#051c2c}.avcls-2,.avcls-3{fill:none;stroke:#051c2c;stroke-width:2px}.avcls-2{stroke-miterlimit:10}.avcls-3{stroke-linecap:round;stroke-linejoin:round}</style></defs><path class="avcls-1" d="M30.5 2.5a28 28 0 1 1-28 28 28 28 0 0 1 28-28m0-2a30 30 0 1 0 30 30 30 30 0 0 0-30-30z"/><circle class="avcls-2" cx="45.48" cy="38.48" r="3.5"/><circle class="avcls-2" cx="30.4" cy="38.48" r="3.5"/><circle class="avcls-2" cx="30.4" cy="22.44" r="3.5"/><circle class="avcls-2" cx="15.52" cy="38.56" r="3.5"/><path class="avcls-3" d="M30.2 25.94v9.04m3.9-12.54h11.38v12.19M26.9 22.44H15.52v12.75"/></symbol><symbol viewBox="0 0 61 61" id="mobility-prequal" xmlns="http://www.w3.org/2000/svg"><g fill="none" fill-rule="evenodd"><path d="M30.5 2.5c15.464 0 28 12.536 28 28s-12.536 28-28 28-28-12.536-28-28 12.536-28 28-28zm0-2C13.931.5.5 13.931.5 30.5c0 16.569 13.431 30 30 30 16.569 0 30-13.431 30-30 0-16.569-13.431-30-30-30z" fill="#051C2C" fill-rule="nonzero"/><path d="M14.83 21.36h8.19v8.19h-8.19v-8.19zm0 13.87h8.19v8.19h-8.19v-8.19zm14.34-11.62h17-17zm0 3.88h17-17zm0 9.89h17-17zm0 3.88h17-17z" stroke="#051C2C" stroke-width="2" stroke-linecap="round" stroke-linejoin="round"/><path stroke="#051C2C" stroke-width="2" stroke-linecap="round" stroke-linejoin="round" d="M17.16 25.3l2 1.69 6.95-9.4"/></g></symbol><symbol id="mobility-score" viewBox="0 0 61 61" xmlns="http://www.w3.org/2000/svg"><defs><style>.axcls-1,.axcls-2{fill:none;stroke:#051c2c;stroke-width:2px}.axcls-1{stroke-linecap:round;stroke-linejoin:round}.axcls-2{stroke-miterlimit:10}.axcls-3{fill:#051c2c}</style></defs><path class="axcls-1" d="M33 38.78h16.64a19.14 19.14 0 0 0-38.28 0h16.69m-6.24-8.61l-4.7-4.7m22.19 4.95l4.96-4.95"/><circle class="axcls-2" cx="30.62" cy="38.98" r="2.37"/><path class="axcls-1" d="M32.61 37.41l4.68-3.69M29.5 20.5v8"/><path class="axcls-3" d="M30.5 2.5a28 28 0 1 1-28 28 28 28 0 0 1 28-28m0-2a30 30 0 1 0 30 30 30 30 0 0 0-30-30z"/></symbol><symbol id="navigation" viewBox="0 0 61 61" xml:space="preserve" xmlns="http://www.w3.org/2000/svg"><style>.ayst9{fill:#051c2c}.ayst91{fill:#fff;stroke:#051c2c;stroke-width:2;stroke-linecap:round;stroke-miterlimit:10}</style><path class="ayst9" d="M30.5 2.5c15.4 0 28 12.6 28 28s-12.6 28-28 28-28-12.6-28-28 12.6-28 28-28m0-2C13.9.5.5 13.9.5 30.5s13.4 30 30 30 30-13.4 30-30-13.4-30-30-30z"/><path class="ayst91" d="M41.6 33.1c1.2-2 1.9-4.3 1.9-6.8 0-7.2-5.8-13.1-13.1-13.1s-13 5.8-13 13c0 2.5.7 4.8 1.9 6.8l.6 1s0 .1.1.1l10.4 13.7 10.4-13.7V34l.8-.9z"/><circle class="ayst91" cx="30.5" cy="26.2" r="5.8"/></symbol><symbol viewBox="0 0 1293 1024" id="news" xmlns="http://www.w3.org/2000/svg"><path d="M161.684 431.158V53.895C161.684 24.13 185.813 0 215.579 0h1024c29.765 0 53.895 24.129 53.895 53.895v700.632c0 148.826-120.647 269.474-269.474 269.474H161.684C72.388 1024.001 0 951.613 0 862.317V485.054c0-29.765 24.129-53.895 53.895-53.895h107.789zm0 107.789h-53.895v323.368c0 29.765 24.129 53.895 53.895 53.895V538.947zm107.79-431.158V916.21H1024c89.296 0 161.684-77.559 161.684-173.233V107.789H269.473zm215.579 215.579v161.684h161.684V323.368H485.053zm-53.895-107.789h269.474c29.765 0 53.895 24.129 53.895 53.895v269.474c0 29.765-24.129 53.895-53.895 53.895H431.158c-29.765 0-53.895-24.129-53.895-53.895V269.474c0-29.765 24.129-53.895 53.895-53.895zm0 592.842c-29.765 0-53.895-24.129-53.895-53.895s24.129-53.895 53.895-53.895H1024c29.765 0 53.895 24.129 53.895 53.895s-24.129 53.895-53.895 53.895H431.158zm431.158-485.053c-29.765 0-53.895-24.129-53.895-53.895s24.129-53.895 53.895-53.895H1024c29.765 0 53.895 24.129 53.895 53.895s-24.129 53.895-53.895 53.895H862.316zm0 215.579c-29.765 0-53.895-24.129-53.895-53.895s24.129-53.895 53.895-53.895H1024c29.765 0 53.895 24.129 53.895 53.895s-24.129 53.895-53.895 53.895H862.316z"/></symbol><symbol id="person-focus" viewBox="0 0 61 61" xmlns="http://www.w3.org/2000/svg"><defs><style>.bacls-1{fill:none;stroke:#011c2c;stroke-linecap:round;stroke-linejoin:round;stroke-width:2px}.bacls-2{fill:#051c2c}</style></defs><path class="bacls-1" d="M46.5 25.5v-11h-11M35.5 46.5h11v-11"/><path class="bacls-2" d="M30.5 2.5a28 28 0 1 1-28 28 28 28 0 0 1 28-28m0-2a30 30 0 1 0 30 30 30 30 0 0 0-30-30z"/><path class="bacls-1" d="M30.3 29.88h.32a3.34 3.34 0 0 0 3.3-3.22V24a3.34 3.34 0 0 0-3.3-3.22h-.32A3.22 3.22 0 0 0 27.08 24v2.62a3.22 3.22 0 0 0 3.22 3.26zm8 5.59a.87.87 0 0 0-.35-.41 14.14 14.14 0 0 0-7.46-2.42h-.06A14.14 14.14 0 0 0 23 35.06a.87.87 0 0 0-.35.41 3.71 3.71 0 0 0-.16.57v3.14h16V36a3.67 3.67 0 0 0-.15-.53zM25.5 14.5h-11v11M14.5 35.5v11h11"/></symbol><symbol viewBox="309 166 26 26" id="plus" xmlns="http://www.w3.org/2000/svg"><path d="M323.519 180.518h9.562a1.02 1.02 0 0 0 0-2.036h-9.562v-9.563a1.02 1.02 0 0 0-2.037 0v9.562h-9.563a1.02 1.02 0 0 0 0 2.037h9.563v9.563a1.016 1.016 0 0 0 1.018 1.018 1.02 1.02 0 0 0 1.019-1.018v-9.563z"/></symbol><symbol id="safe-alerts" viewBox="0 0 61 61" xml:space="preserve" xmlns="http://www.w3.org/2000/svg"><style>.bcst9{fill:#051c2c}.bcst81,.bcst82{fill:none;stroke:#051c2c;stroke-width:2;stroke-linecap:round;stroke-miterlimit:10}.bcst82{stroke-linejoin:round}</style><path class="bcst9" d="M30.5 2.5c15.4 0 28 12.6 28 28s-12.6 28-28 28-28-12.6-28-28 12.6-28 28-28m0-2C13.9.5.5 13.9.5 30.5s13.4 30 30 30 30-13.4 30-30-13.4-30-30-30z"/><path class="bcst82" d="M30.5 12.8L39 27.5l8.5 14.7h-34L22 27.5z"/><path class="bcst81" d="M30.5 22.7v11"/><circle class="bcst9" cx="30.5" cy="37" r="1"/></symbol><symbol id="save-money" viewBox="0 0 61 61" xmlns="http://www.w3.org/2000/svg"><defs><style>.bdcls-1{fill:#051c2c}.bdcls-2{fill:none;stroke:#011c2c;stroke-linecap:round;stroke-miterlimit:10;stroke-width:2px}</style></defs><path class="bdcls-1" d="M30.5 2.5a28 28 0 1 1-28 28 28 28 0 0 1 28-28m0-2a30 30 0 1 0 30 30 30 30 0 0 0-30-30z"/><path class="bdcls-2" d="M30.5 13.04v34.92M21.38 43.25h13.49a6.35 6.35 0 0 0 6.26-6.45 6.55 6.55 0 0 0-6.26-6.66h-8.74a6.35 6.35 0 0 1-6.26-6.45 6.35 6.35 0 0 1 6.26-6.45h13.5"/></symbol><symbol viewBox="0 0 24 24" id="social-facebook" xmlns="http://www.w3.org/2000/svg"><path d="M22.68 0H1.32A1.32 1.32 0 0 0 0 1.32v21.36A1.32 1.32 0 0 0 1.32 24h11.5v-9.29H9.69v-3.63h3.13V8.41c0-3.1 1.89-4.79 4.66-4.79a25.67 25.67 0 0 1 2.79.14V7h-1.92c-1.5 0-1.8.71-1.8 1.76v2.31h3.59l-.47 3.62h-3.11V24h6.12A1.32 1.32 0 0 0 24 22.68V1.32A1.32 1.32 0 0 0 22.68 0z"/></symbol><symbol viewBox="0 0 24 24" id="social-instagram" xmlns="http://www.w3.org/2000/svg"><path d="M18 9.5h6v11c0 .963-.343 1.787-1.028 2.472S21.463 24 20.5 24h-17c-.963 0-1.787-.343-2.472-1.028S0 21.463 0 20.5v-11h6a6.279 6.279 0 0 0-.5 2.5c0 1.796.634 3.329 1.903 4.597C8.67 17.866 10.203 18.5 12 18.5c1.796 0 3.329-.634 4.597-1.903C17.866 15.33 18.5 13.797 18.5 12c0-.889-.167-1.722-.5-2.5zm-6 7c-1.26 0-2.324-.435-3.194-1.306C7.936 14.324 7.5 13.26 7.5 12c0-1.24.44-2.3 1.32-3.18C9.7 7.94 10.76 7.5 12 7.5c1.24 0 2.3.44 3.18 1.32.88.88 1.32 1.94 1.32 3.18 0 1.24-.44 2.3-1.32 3.18-.88.88-1.94 1.32-3.18 1.32zm12-13v4h-7.306c-1.296-1.333-2.86-2-4.694-2-1.833 0-3.398.667-4.694 2H0v-4c0-.963.343-1.787 1.028-2.472S2.537 0 3.5 0h17c.963 0 1.787.343 2.472 1.028S24 2.537 24 3.5z"/></symbol><symbol viewBox="0 0 24 24" id="social-linkedin" xmlns="http://www.w3.org/2000/svg"><path d="M21.92 0c.966 0 1.751.771 1.751 1.722v20.44c0 .952-.785 1.724-1.75 1.724H1.745A1.736 1.736 0 0 1 0 22.163V1.723C0 .77.782 0 1.746 0H21.92zM3.507 20.354h3.515v-11.4H3.507v11.4zM5.266 7.398c1.123 0 2.034-.92 2.034-2.055a2.045 2.045 0 0 0-2.034-2.055c-1.128 0-2.037.92-2.037 2.055 0 1.134.909 2.055 2.037 2.055zm14.906 12.956v-6.252c0-3.07-.657-5.43-4.212-5.43-1.708 0-2.854.945-3.322 1.841h-.048V8.955H9.224v11.399h3.507v-5.638c0-1.488.279-2.928 2.106-2.928 1.802 0 1.824 1.7 1.824 3.022v5.544h3.51z"/></symbol><symbol viewBox="0 0 24 20" id="social-twitter" xmlns="http://www.w3.org/2000/svg"><path d="M21.484 5.477c0-.21 0-.42-.01-.63a9.993 9.993 0 0 0 2.451-2.543c-.88.391-1.829.65-2.824.774A4.933 4.933 0 0 0 23.264.363c-.947.564-2 .966-3.12 1.185a4.911 4.911 0 0 0-8.492 3.355c0 .383.047.756.124 1.119A13.948 13.948 0 0 1 1.656.898a4.913 4.913 0 0 0 1.522 6.548 4.972 4.972 0 0 1-2.22-.612v.067a4.914 4.914 0 0 0 3.934 4.808 4.794 4.794 0 0 1-1.292.172c-.316 0-.623-.029-.92-.086a4.908 4.908 0 0 0 4.587 3.403A9.857 9.857 0 0 1 1.168 17.3c-.393 0-.785-.02-1.168-.067a13.981 13.981 0 0 0 7.515 2.189c9.029 0 13.969-7.475 13.969-13.946z"/></symbol><symbol id="solutions" viewBox="0 0 61 61" xmlns="http://www.w3.org/2000/svg"><defs><style>.bicls-1,.bicls-2,.bicls-3{fill:none;stroke:#051c2c;stroke-width:2px}.bicls-1,.bicls-2{stroke-linecap:round}.bicls-1{stroke-linejoin:round}.bicls-2,.bicls-3{stroke-miterlimit:10}.bicls-4{fill:#051c2c}</style></defs><path class="bicls-1" d="M26.45 32.49l3.99-5.7 3.98 5.7h-7.97z"/><path class="bicls-2" d="M13 26a17.91 17.91 0 0 1 4.7-8.2M26.15 48A18 18 0 0 1 12.9 34.52m35.1 0A18 18 0 0 1 34.77 48m8.39-30.22A17.91 17.91 0 0 1 48 26.45M34.42 13a20.6 20.6 0 0 1 8.74 4.83m-25.44-.05A17.91 17.91 0 0 1 26.46 13"/><circle class="bicls-3" cx="12.62" cy="30.47" r="3.5"/><circle class="bicls-3" cx="48.38" cy="30.47" r="3.5"/><circle class="bicls-3" cx="30.44" cy="48.49" r="3.5"/><circle class="bicls-3" cx="30.44" cy="12.51" r="3.5"/><path class="bicls-4" d="M30.5 2.5a28 28 0 1 1-28 28 28 28 0 0 1 28-28m0-2a30 30 0 1 0 30 30 30 30 0 0 0-30-30z"/></symbol><symbol id="speedy" viewBox="0 0 61 61" xmlns="http://www.w3.org/2000/svg"><defs><style>.bjcls-1{fill:#051c2c}.bjcls-2{fill:none;stroke:#000;stroke-linecap:round;stroke-linejoin:round;stroke-width:2px}</style></defs><path class="bjcls-1" d="M30.5 2.5a28 28 0 1 1-28 28 28 28 0 0 1 28-28m0-2a30 30 0 1 0 30 30 30 30 0 0 0-30-30z"/><path class="bjcls-2" d="M20.55 22.82h17.7M9.28 29.5h18.69M12.15 36.18h13.54M18.63 42.86h5.57M34.59 16.14h6.18M49.7 40.4h-3.55M36.69 40.4h-5.25c-.73 0-1.54-.45-1.32-1.32l3.13-7.76a2 2 0 0 1 2-1.32H49.7"/><path class="bjcls-2" d="M40.76 30l4.64-7a4 4 0 0 1 3.09-1.84h1.23"/><circle class="bjcls-2" cx="41.39" cy="40.29" r="4.57"/></symbol><symbol id="vehicle-systems" viewBox="0 0 61 61" xml:space="preserve" xmlns="http://www.w3.org/2000/svg"><style>.bkst9{fill:#051c2c}.bkst81,.bkst82{stroke-linecap:round}.bkst81{fill:none;stroke:#051c2c;stroke-width:2;stroke-miterlimit:10}.bkst82{stroke-linejoin:round}.bkst82,.bkst83{fill:none;stroke:#051c2c;stroke-width:2;stroke-miterlimit:10}</style><circle class="bkst83" cx="30.4" cy="14.8" r="3"/><path class="bkst82" d="M30.3 17.8v6.6"/><circle class="bkst83" cx="30.5" cy="46.2" r="3"/><path class="bkst82" d="M30.4 43.2v-6.6"/><circle class="bkst83" cx="13.9" cy="30.5" r="3"/><path class="bkst82" d="M16.9 30.5h6.6"/><circle class="bkst83" cx="47.1" cy="30.5" r="3"/><path class="bkst82" d="M44.1 30.5h-6.6"/><ellipse transform="rotate(-45.001 42.523 20.319)" class="bkst83" cx="42.5" cy="20.3" rx="3" ry="3"/><path class="bkst82" d="M40.4 22.4L35.7 27"/><g><ellipse transform="rotate(-45.001 18.31 40.286)" class="bkst83" cx="18.3" cy="40.3" rx="3" ry="3"/><path class="bkst82" d="M20.4 38.1l4.6-4.7"/></g><g><ellipse transform="rotate(-45.001 18.282 20.191)" class="bkst83" cx="18.3" cy="20.2" rx="3" ry="3"/><path class="bkst82" d="M20.4 22.3l4.7 4.7"/></g><g><ellipse transform="rotate(-45.001 42.717 40.231)" class="bkst83" cx="42.7" cy="40.2" rx="3" ry="3"/><path class="bkst82" d="M40.6 38.1l-4.7-4.7"/></g><g><path class="bkst82" d="M28.2 30.7c.2.2 2 2.1 2 2.1l3.1-3.8"/><circle class="bkst81" cx="30.5" cy="30.5" r="5.9"/></g><g><path class="bkst9" d="M30.5 2.5c15.4 0 28 12.6 28 28s-12.6 28-28 28-28-12.6-28-28 12.6-28 28-28m0-2C13.9.5.5 13.9.5 30.5s13.4 30 30 30 30-13.4 30-30-13.4-30-30-30z"/></g></symbol></svg>