<svg width="24" height="24" viewBox="0 0 24 24" fill="none" xmlns="http://www.w3.org/2000/svg">
<path fill-rule="evenodd" clip-rule="evenodd" d="M11.9272 9.68508C11.6392 9.68508 11.3689 9.80606 11.145 10.0329C10.4314 10.7575 10.2919 12.4162 10.2987 13.6804C10.315 16.329 11.1572 17.488 11.7209 17.6214L11.7659 17.6317L11.8592 17.6372C12.9328 17.6372 13.2065 14.7548 13.2651 13.8715C13.3781 12.1522 13.3754 9.84868 12.0525 9.69264C12.0096 9.68783 11.9688 9.68508 11.9272 9.68508ZM12.0002 5.74547C10.3267 5.74547 8.79893 6.3889 7.69802 7.55889C6.35609 8.98323 5.71542 11.1053 5.84478 13.6983C5.99728 16.7752 7.12271 19.3228 9.01408 20.8681L9.20267 21.0214L9.42394 20.9245C10.0946 20.6296 10.6638 20.1504 11.1642 19.4575L11.3991 19.1323L11.0784 18.8952C10.3424 18.3494 9.76641 17.5375 9.36607 16.4816C8.90583 15.2683 8.49324 11.447 9.78411 9.55379C10.3124 8.77563 11.0791 8.36455 11.9982 8.36455L12.067 8.36593C13.8126 8.40305 14.6759 9.79508 14.6337 12.5049C14.5997 14.7157 14.3614 16.0933 13.7575 17.587L13.5301 18.148C13.5301 18.148 13.861 18.2463 14.7188 18.0098C16.617 17.4502 18.0209 14.9638 17.9834 12.2251C17.9494 9.75108 16.3195 5.8039 12.0901 5.74616L12.0002 5.74547ZM12.5985 19.9443C12.2192 20.5424 11.7726 21.0655 11.2879 21.4759L10.7595 21.922C10.7595 21.922 11.1047 22.1014 11.4383 22.1874C12.2376 22.4355 12.9763 22.529 13.8008 22.529C14.2189 22.529 14.643 22.4974 15.0624 22.4341C18.547 21.9117 22.2929 18.1886 22.5299 12.8597C22.6681 9.76356 21.6679 6.89838 19.7139 4.79074C17.7885 2.71403 15.1312 1.53648 12.2322 1.47392L12.0007 1.47117C6.21289 1.47117 1.58251 6.06385 1.45928 11.9283C1.3946 14.9722 2.34165 17.7315 4.05668 19.5002C4.56867 20.0288 5.26517 20.5334 5.76899 20.7802C6.76778 21.2552 7.34308 21.2724 7.34308 21.2724C7.34308 21.2724 6.85492 20.7802 6.46889 20.2694C5.25155 18.5983 4.51488 16.2975 4.38961 13.7719C4.20102 9.97734 5.51027 7.74734 6.64182 6.54504C8.02188 5.08152 9.92482 4.27448 12 4.27448L12.113 4.27517C15.0216 4.31504 16.7652 5.85143 17.7157 7.13279C18.771 8.55438 19.4157 10.451 19.4402 12.2053C19.4872 15.6355 17.6721 18.6705 15.1257 19.4219C14.5634 19.5882 14.0173 19.6721 13.5026 19.6721C13.3597 19.6721 13.218 19.6666 13.0785 19.6528L12.8184 19.6281L12.5985 19.9443ZM13.7937 24C12.0937 24 10.4576 23.5491 9.06122 22.6946L8.93322 22.6162L8.7848 22.643C8.58531 22.6788 8.38242 22.7042 8.17613 22.7207C8.04405 22.7303 7.90788 22.7358 7.77307 22.7358C6.0846 22.7358 4.39544 21.9522 3.01606 20.5285C1.02869 18.48 -0.068821 15.3343 0.00334786 11.8972C0.14292 5.22648 5.41056 0 11.9943 0C12.0835 0 12.1727 0.00137485 12.2625 0.00343712C15.5585 0.0742417 18.5821 1.41747 20.7784 3.78564C23.0027 6.18406 24.1418 9.43076 23.9859 12.9263C23.7047 19.241 19.2888 23.2878 15.2766 23.8886C14.7796 23.9629 14.2812 24 13.7937 24Z" fill="#7875EB"/>
<path fill-rule="evenodd" clip-rule="evenodd" d="M11.9272 9.68508C11.6392 9.68508 11.3689 9.80606 11.145 10.0329C10.4314 10.7575 10.2919 12.4162 10.2987 13.6804C10.315 16.329 11.1572 17.488 11.7209 17.6214L11.7659 17.6317L11.8592 17.6372C12.9328 17.6372 13.2065 14.7548 13.2651 13.8715C13.3781 12.1522 13.3754 9.84868 12.0525 9.69264C12.0096 9.68783 11.9688 9.68508 11.9272 9.68508ZM12.0002 5.74547C10.3267 5.74547 8.79893 6.3889 7.69802 7.55889C6.35609 8.98323 5.71542 11.1053 5.84478 13.6983C5.99728 16.7752 7.12271 19.3228 9.01408 20.8681L9.20267 21.0214L9.42394 20.9245C10.0946 20.6296 10.6638 20.1504 11.1642 19.4575L11.3991 19.1323L11.0784 18.8952C10.3424 18.3494 9.76641 17.5375 9.36607 16.4816C8.90583 15.2683 8.49324 11.447 9.78411 9.55379C10.3124 8.77563 11.0791 8.36455 11.9982 8.36455L12.067 8.36593C13.8126 8.40305 14.6759 9.79508 14.6337 12.5049C14.5997 14.7157 14.3614 16.0933 13.7575 17.587L13.5301 18.148C13.5301 18.148 13.861 18.2463 14.7188 18.0098C16.617 17.4502 18.0209 14.9638 17.9834 12.2251C17.9494 9.75108 16.3195 5.8039 12.0901 5.74616L12.0002 5.74547ZM12.5985 19.9443C12.2192 20.5424 11.7726 21.0655 11.2879 21.4759L10.7595 21.922C10.7595 21.922 11.1047 22.1014 11.4383 22.1874C12.2376 22.4355 12.9763 22.529 13.8008 22.529C14.2189 22.529 14.643 22.4974 15.0624 22.4341C18.547 21.9117 22.2929 18.1886 22.5299 12.8597C22.6681 9.76356 21.6679 6.89838 19.7139 4.79074C17.7885 2.71403 15.1312 1.53648 12.2322 1.47392L12.0007 1.47117C6.21289 1.47117 1.58251 6.06385 1.45928 11.9283C1.3946 14.9722 2.34165 17.7315 4.05668 19.5002C4.56867 20.0288 5.26517 20.5334 5.76899 20.7802C6.76778 21.2552 7.34308 21.2724 7.34308 21.2724C7.34308 21.2724 6.85492 20.7802 6.46889 20.2694C5.25155 18.5983 4.51488 16.2975 4.38961 13.7719C4.20102 9.97734 5.51027 7.74734 6.64182 6.54504C8.02188 5.08152 9.92482 4.27448 12 4.27448L12.113 4.27517C15.0216 4.31504 16.7652 5.85143 17.7157 7.13279C18.771 8.55438 19.4157 10.451 19.4402 12.2053C19.4872 15.6355 17.6721 18.6705 15.1257 19.4219C14.5634 19.5882 14.0173 19.6721 13.5026 19.6721C13.3597 19.6721 13.218 19.6666 13.0785 19.6528L12.8184 19.6281L12.5985 19.9443ZM13.7937 24C12.0937 24 10.4576 23.5491 9.06122 22.6946L8.93322 22.6162L8.7848 22.643C8.58531 22.6788 8.38242 22.7042 8.17613 22.7207C8.04405 22.7303 7.90788 22.7358 7.77307 22.7358C6.0846 22.7358 4.39544 21.9522 3.01606 20.5285C1.02869 18.48 -0.068821 15.3343 0.00334786 11.8972C0.14292 5.22648 5.41056 0 11.9943 0C12.0835 0 12.1727 0.00137485 12.2625 0.00343712C15.5585 0.0742417 18.5821 1.41747 20.7784 3.78564C23.0027 6.18406 24.1418 9.43076 23.9859 12.9263C23.7047 19.241 19.2888 23.2878 15.2766 23.8886C14.7796 23.9629 14.2812 24 13.7937 24Z" fill="white"/>
</svg>
