<svg id="Layer_1" xmlns="http://www.w3.org/2000/svg" viewBox="0 0 144 144"><style>.st0{opacity:.13}.st1{fill:#768693}.st2{fill:#fff}.st3{clip-path:url(#SVGID_2_)}.st4,.st5{stroke-linejoin:round}.st4{fill:none;stroke:#768693;stroke-linecap:round}.st5{stroke-dasharray:.4634,1.8534}.st5,.st6,.st7{fill:none;stroke:#768693;stroke-linecap:round}.st6{stroke-miterlimit:10}.st7{stroke-linejoin:round;stroke-dasharray:.4696,1.8785}.st8{fill:#ed1c24}.st9{stroke:#051c2c;stroke-linecap:round;stroke-miterlimit:10}.st10,.st9{fill:none}.st10,.st11,.st12,.st13{stroke:#051c2c;stroke-miterlimit:10}.st11{fill-rule:evenodd;clip-rule:evenodd;stroke-linecap:round;fill:none}.st12,.st13{fill:#fff}.st13{stroke-linecap:round}.st14{opacity:.45}.st15{stroke-linecap:round}.st15,.st16{fill:none;stroke:#1476ee;stroke-linejoin:round;stroke-miterlimit:10}.st17{fill:#051c2c}.st18{clip-path:url(#SVGID_6_)}.st19{stroke-dasharray:.4919,1.9675}.st19,.st20,.st21,.st22,.st23{fill:none;stroke:#768693;stroke-linecap:round;stroke-linejoin:round}.st20{stroke-dasharray:.4438,1.7751}.st21{stroke-dasharray:.4731,1.8923}.st22{stroke-dasharray:.4989,1.9956}.st23{stroke-dasharray:.4851,1.9405}.st24,.st25,.st26,.st27{fill:#fff;stroke-miterlimit:10}.st24{stroke-linejoin:round;stroke:#051c2c}.st25{stroke:#00bcb5}.st26,.st27{stroke:#1476ee;stroke-linecap:round}.st27{stroke:#adb6be}.st28{fill:#00bcb5}.st29{fill:#1476ee}.st30{fill:#adb6be}.st31,.st32{fill-rule:evenodd;clip-rule:evenodd;fill:#fff;stroke-linejoin:round;stroke-miterlimit:10}.st31{stroke-linecap:round;stroke:#bac2c9}.st32{stroke:#adb6be}.st32,.st33,.st34{stroke-linecap:round}.st33{fill-rule:evenodd;clip-rule:evenodd;fill:#fff;stroke-linejoin:round;stroke-miterlimit:10;stroke:#919ea9}.st34{stroke:#84929e}.st34,.st35,.st36,.st37{fill-rule:evenodd;clip-rule:evenodd;fill:#fff;stroke-linejoin:round;stroke-miterlimit:10}.st35{stroke-linecap:round;stroke:#798895}.st36{stroke:#768693}.st37{stroke:#051c2c;stroke-linecap:round}.st38{clip-path:url(#SVGID_10_)}.st39,.st40{fill:none;stroke:#768693;stroke-linecap:round;stroke-linejoin:round;stroke-dasharray:.4789,1.9154}.st40{stroke-dasharray:.4847,1.9388}.st41{opacity:.6}.st42,.st43{fill:#fff;stroke:#768693;stroke-miterlimit:10}.st43{fill:none}.st44{clip-path:url(#SVGID_18_)}.st45{fill:none;stroke:#00bcb5;stroke-linecap:round;stroke-miterlimit:10}.st46{fill:#fff}.st46,.st47{clip-path:url(#SVGID_26_)}.st48,.st49,.st50,.st51,.st52,.st53{fill:none;stroke:#1476ee;stroke-linecap:round;stroke-linejoin:round}.st49{stroke-dasharray:.5147,2.0588}.st50{stroke-dasharray:.4946,1.9785}.st51{stroke-dasharray:.4998,1.9993}.st52{stroke-dasharray:.4875,1.9501}.st53{stroke-dasharray:.5,2}.st53,.st54,.st55{stroke-miterlimit:10}.st54{stroke-width:1.5;stroke-linecap:round;fill:none;stroke:#768693}.st55{fill:#fff;stroke:#1476ee}.st56{clip-path:url(#SVGID_28_)}.st57{fill:#fff;stroke:#768693;stroke-linejoin:round;stroke-miterlimit:10}.st58{clip-path:url(#SVGID_28_);fill:none;stroke:#00bcb5}.st58,.st59,.st60{stroke-miterlimit:10}.st59{clip-path:url(#SVGID_28_);stroke-linejoin:round;fill:#fff;stroke:#768693}.st60{fill:none;stroke:#00bcb5}.st61{clip-path:url(#SVGID_34_)}.st62{clip-path:url(#SVGID_36_)}.st63,.st64{stroke:#768693}.st63{fill:none;stroke-linejoin:round;stroke-miterlimit:10}.st64{stroke-linecap:round}.st64,.st65,.st66,.st67{fill:none;stroke-linejoin:round;stroke-miterlimit:10}.st65{opacity:.5;stroke:#768693}.st66,.st67{stroke:#00bcb5;stroke-linecap:round}.st67{opacity:.6;stroke:#768693;stroke-dasharray:.5,2}.st68{clip-path:url(#SVGID_38_)}.st69,.st70{stroke-miterlimit:10}.st69{stroke:#1476ee;stroke-linecap:round;fill:none}.st70{fill:#fff}.st70,.st71{stroke:#231f20}.st71,.st72{stroke-miterlimit:10}.st71{fill:none}.st72{fill:#fff;stroke:#697780;stroke-linecap:round}.st73{fill:#231f20}.st74{fill:#697780}.st75{opacity:.97}.st75,.st76,.st77{fill:#768693}.st76{opacity:.5}.st77{opacity:.6}.st78{fill:none}.st79{fill:#bac2c9}.st80{fill:#919ea9}.st81{fill:#84929e}.st82{fill:#798895}.st83{fill-rule:evenodd;clip-rule:evenodd;fill:#768693}</style><path class="st17" d="M71.7 133.9c-2.3 0-4.2-1.9-4.2-4.2 0-2.3 1.9-4.2 4.2-4.2 2.3 0 4.2 1.9 4.2 4.2 0 2.3-1.9 4.2-4.2 4.2zm0-7.5c-1.8 0-3.2 1.5-3.2 3.2 0 1.8 1.5 3.2 3.2 3.2s3.2-1.5 3.2-3.2c0-1.7-1.4-3.2-3.2-3.2zM33.6 13.3h76.2v1H33.6z"/><g class="st14"><path class="st1" d="M45.6 96.4c-.3 0-.5-.2-.5-.5V58.4c0-.3.2-.5.5-.5s.5.2.5.5v37.5c0 .3-.3.5-.5.5zm8.7 3c-.3 0-.5-.2-.5-.5V46.6c0-.3.2-.5.5-.5s.5.2.5.5v52.3c0 .3-.2.5-.5.5zm8.7 0c-.3 0-.5-.2-.5-.5V50.3c0-.3.2-.5.5-.5s.5.2.5.5v48.6c0 .3-.2.5-.5.5zm8.7 0c-.3 0-.5-.2-.5-.5V39.1c0-.3.2-.5.5-.5s.5.2.5.5v59.8c0 .3-.2.5-.5.5zm17.4 0c-.3 0-.5-.2-.5-.5V36c0-.3.2-.5.5-.5s.5.2.5.5v63c0 .2-.2.4-.5.4zm8.7 0c-.3 0-.5-.2-.5-.5v-36c0-.3.2-.5.5-.5s.5.2.5.5v36c0 .3-.2.5-.5.5zm-17.4 0c-.3 0-.5-.2-.5-.5V42.6c0-.3.2-.5.5-.5s.5.2.5.5v56.3c0 .3-.2.5-.5.5z"/></g><path class="st29" d="M45.5 102.5c-1.9 0-3.5-1.6-3.5-3.5s1.6-3.5 3.5-3.5S49 97.1 49 99s-1.6 3.5-3.5 3.5zm0-6c-1.4 0-2.5 1.1-2.5 2.5s1.1 2.5 2.5 2.5S48 100.4 48 99s-1.1-2.5-2.5-2.5z"/><path class="st29" d="M54.3 99.5h-6.1v-1h5.6v-31c0-.1.1-.3.1-.4.1-.1.2-.1.4-.1h16.9L80 52.4c.1-.2.3-.2.4-.2h17.4l.2 1H80.6l-8.8 14.6c-.1.2-.2.2-.4.2H54.8v31c0 .1-.1.3-.1.4-.2.1-.3.1-.4.1z"/><path class="st29" d="M98 53.2c-.2 0-.3-.1-.4-.2l-3.7-4.9c-.5-.8-.7-1.7-.7-2.5 0-2.7 2.2-4.8 4.8-4.8 2.7 0 4.8 2.2 4.8 4.8 0 .9-.2 1.8-.7 2.5l-.2.3-3.5 4.6c-.1.1-.2.2-.4.2zm0-11.5c-2.1 0-3.8 1.7-3.8 3.8 0 .7.2 1.4.6 2l.2.3 3.1 4 3.3-4.3c.4-.6.6-1.3.6-2-.1-2.1-1.8-3.8-4-3.8zm3.7 6.1z"/><path class="st29" d="M98 48.2c-1.4 0-2.5-1.1-2.5-2.5s1.1-2.5 2.5-2.5 2.5 1.1 2.5 2.5-1.1 2.5-2.5 2.5zm0-4c-.8 0-1.5.7-1.5 1.5s.7 1.5 1.5 1.5 1.5-.7 1.5-1.5-.6-1.5-1.5-1.5z"/><path class="st17" d="M68.1 7.1h7.1v1h-7.1zm42.2 123.3h-1v-10.8H34.1v10.5h-1v-11.5h77.2z"/><path class="st17" d="M110.1 13.3v1.2C128.7 26.9 141 48 141 72c0 38-31 69-69 69S3 110 3 72c0-23.8 12.1-44.8 30.5-57.2v-1.2C14.5 26.1 2 47.6 2 72c0 38.7 31.3 70 70 70s70-31.3 70-70c0-24.6-12.7-46.3-31.9-58.7z"/><path class="st17" d="M34.1 119.6h-1V7.9c0-4.1 3.3-7.5 7.5-7.5h62.3c4.1 0 7.5 3.3 7.5 7.5v111.3h-1V7.9c0-3.6-2.9-6.5-6.5-6.5H40.5c-3.6 0-6.5 2.9-6.5 6.5v111.7z"/><path class="st1" d="M132.8 90.3h-.5c-.3 0-.5-.2-.5-.5s.2-.5.5-.5h.5c.3 0 .5.2.5.5s-.2.5-.5.5zm-2.3 0h-.5c-.3 0-.5-.2-.5-.5s.2-.5.5-.5h.5c.3 0 .5.2.5.5s-.2.5-.5.5zm-2.3 0h-.5c-.3 0-.5-.2-.5-.5s.2-.5.5-.5h.5c.3 0 .5.2.5.5s-.2.5-.5.5zm-2.3 0h-.5c-.3 0-.5-.2-.5-.5s.2-.5.5-.5h.5c.3 0 .5.2.5.5s-.3.5-.5.5zm-2.4 0h-.5c-.3 0-.5-.2-.5-.5s.2-.5.5-.5h.5c.3 0 .5.2.5.5s-.2.5-.5.5zm-2.3 0h-.5c-.3 0-.5-.2-.5-.5s.2-.5.5-.5h.5c.3 0 .5.2.5.5s-.2.5-.5.5zm-2.3 0h-.2c-.3 0-.5-.2-.5-.5s.2-.5.5-.5h.2c.3 0 .5.2.5.5s-.2.5-.5.5zm3.5-8.1c-.3 0-.5.2-.5.5s.2.5.5.5H135c.1-.3.1-.7.2-1h-12.8zM18.7 63c0-.3-.2-.5-.5-.5H8.7c0 .3-.1.7-.1 1h9.6c.3 0 .5-.3.5-.5zm6.4 6.7h-.2c-.3 0-.5.2-.5.5s.2.5.5.5h.2c.3 0 .5-.2.5-.5s-.3-.5-.5-.5z"/><path class="st75" d="M11.2 69.7h-.5c-.3 0-.5.2-.5.5s.2.5.5.5h.5c.3 0 .5-.2.5-.5s-.2-.5-.5-.5zm2.3 0H13c-.3 0-.5.2-.5.5s.2.5.5.5h.5c.3 0 .5-.2.5-.5s-.2-.5-.5-.5z"/><path class="st1" d="M22.9 69.7h-.5c-.3 0-.5.2-.5.5s.2.5.5.5h.5c.3 0 .5-.2.5-.5s-.2-.5-.5-.5z"/><path class="st75" d="M20.6 69.7h-.5c-.3 0-.5.2-.5.5s.2.5.5.5h.5c.3 0 .5-.2.5-.5s-.2-.5-.5-.5zm-4.7 0h-.5c-.3 0-.5.2-.5.5s.2.5.5.5h.5c.3 0 .5-.2.5-.5s-.2-.5-.5-.5zm2.3 0h-.5c-.3 0-.5.2-.5.5s.2.5.5.5h.5c.3 0 .5-.2.5-.5s-.2-.5-.5-.5zm-9.4 0h-.2c-.3 0-.5.2-.5.5s.2.5.5.5h.2c.3 0 .5-.2.5-.5s-.2-.5-.5-.5z"/><g class="st0"><path class="st1" d="M136 72c0-21.3-10.5-40.2-26.5-51.9v103.7c16-11.6 26.5-30.5 26.5-51.8z"/></g><g class="st0"><path class="st1" d="M8 72c0 20.8 9.9 39.3 25.3 51V21C17.9 32.7 8 51.2 8 72z"/></g></svg>