<?xml version="1.0" encoding="UTF-8"?> <svg xmlns="http://www.w3.org/2000/svg" id="ART" viewBox="0 0 1110 760"> <defs> <style>.cls-1{fill:#081d2b;}.cls-2{fill:#63727e;opacity:0.3;}.cls-3,.cls-4,.cls-6{fill:none;}.cls-3{stroke:#63727e;}.cls-3,.cls-4{stroke-linejoin:round;}.cls-3,.cls-4,.cls-5,.cls-6{stroke-width:4px;}.cls-4{stroke:#326fb7;}.cls-5{fill:#0c1d2a;}.cls-5,.cls-6{stroke:#00afb9;stroke-miterlimit:10;}.cls-7,.cls-8{fill:#00afb9;}.cls-7{opacity:0.5;}.cls-9{fill:#326fb7;}.cls-10{fill:#63737f;}</style> </defs> <title>2019-Q3-Website-Promo-Highlight-Images_Final</title> <polyline class="cls-1" points="-0.015 -0.303 -0.015 759.961 1110 760 1110 -0.264"></polyline> <path class="cls-2" d="M804.3559,628.7492v48.40812H577.81761V628.7492Zm0-317.26079H358.3155V208.52759H804.35585ZM657.2419,182.50787H467.53407V107.84442H657.2419ZM332.29575-.303l0,182.8109L-.02384,186.35933V212.379l332.31961-3.85145,0,211.886H0v26.01971H804.35588v74.15411H558.088v-.00578H0v26.01972H551.79788V677.14346H509.54127v-74.265H416.15534v-.149H0V628.7492H403.14549L403.25177,760h26.01971l-.10628-131.10181h54.35635V760h26.01971V703.16318h42.27742V760h26.01971V703.177H804.3559l0,56.823h26.01971V628.7492H1110V602.72949H577.8176V546.60715h252.558v-.00577H1110V520.58166H830.3756V446.43333H1110V420.41362H830.37559v-82.9055H1110V311.48841H830.37558V208.52759H1110V182.50787H886.19413l0-182.8109H860.1744l0,182.8109H683.26162V81.8247l0-82.12773H657.24188V81.8247H467.47167l0-82.12773H441.45194l0,85.33977h.06239v97.47113H358.31549l0-182.8109Zm26.01976,420.71665v-82.9055H804.35587v82.9055Z"></path> <polyline class="cls-3" points="608.916 433.124 346.474 433.124 346.474 198.674 454.107 198.674 454.107 94.154 666.7 94.154 666.7 198.674 866.686 198.674 866.685 5.697"></polyline> <polyline class="cls-4" points="575.116 433.424 780.866 433.424 780.866 533.598 528.309 533.598 0 533.787"></polyline> <circle class="cls-5" cx="575.1164" cy="324.81416" r="64.79758"></circle> <path class="cls-6" d="M543.99021,318.93892l7.19349-22.871a1.83238,1.83238,0,0,1,1.84445-1.29111l43.40263-.00009a1.7961,1.7961,0,0,1,1.84442,1.47554l7.19313,22.68651"></path> <path class="cls-6" d="M609.69255,343.52475l-69.20349-.00006.01729-22.61388a1.64347,1.64347,0,0,1,1.73954-1.73953h1.73953l62.26193,0h1.73953a1.64347,1.64347,0,0,1,1.73954,1.73953l0,20.97589-.03385,1.882"></path> <circle class="cls-6" cx="551.88172" cy="331.94622" r="4.05572" transform="translate(207.58442 876.20818) rotate(-88.70886)"></circle> <circle class="cls-6" cx="599.19537" cy="331.94626" r="4.05572" transform="translate(253.83231 923.51009) rotate(-88.7089)"></circle> <path class="cls-6" d="M547.47776,343.74428v7.6129a3.50462,3.50462,0,0,1-3.49435,3.49433h0a3.50462,3.50462,0,0,1-3.49435-3.49434V343.357"></path> <path class="cls-6" d="M609.74375,343.357v8.00021a3.50461,3.50461,0,0,1-3.49435,3.49433h0a3.50462,3.50462,0,0,1-3.49435-3.49434v-7.61289"></path> <circle class="cls-7" cx="574.66743" cy="433.24096" r="15.74377"></circle> <circle class="cls-8" cx="574.66743" cy="433.24096" r="7.87188"></circle> <line class="cls-6" x1="575.1164" y1="389.61174" x2="575.1164" y2="433.42356"></line> <circle class="cls-9" cx="691.2228" cy="433.25982" r="7.75755"></circle> <circle class="cls-9" cx="256.60789" cy="533.02981" r="7.75755"></circle> <circle class="cls-10" cx="628.94242" cy="94.15399" r="7.75755"></circle> </svg> 